<svg xmlns="http://www.w3.org/2000/svg" width="25" height="25" fill="none" data-manacost="(2/W)" data-testid="manaCostItem" viewBox="0 0 27 27"><path fill="#C3BAB9" d="M.975 13.475C.975 6.55 6.625.9 13.55.9c6.975 0 12.6 5.65 12.6 12.575 0 6.95-5.625 12.6-12.6 12.6-6.925 0-12.575-5.65-12.575-12.6Z"/><path fill="#FFFBD1" d="M13.55 26.075c-3.475 0-6.625-1.425-8.925-3.725l17.85-17.8c2.3 2.3 3.675 5.425 3.675 8.925 0 6.95-5.625 12.6-12.6 12.6Z"/><path fill="#000" d="M20.575 18.275c-.35 1.35-1.75 1.575-2.05 1.575-.2 0-.4-.025-.575-.1-1.125-.3-1.6-1.3-1.6-2.075 0-.175.025-.35.075-.525.125-.525.525-.975 1-1.275.475-.275.875-.275 1.05-.275.2 0 .4.025.575.075.575.175 1.025.525 1.3 1 .275.475.275.9.275 1.1 0 .175-.025.325-.05.5Zm3.225 1.75c-.275-.225-.8-.9-1.275-1.025-.05-.025-.1-.025-.125-.025-.175 0-.25.125-.325.3-.1.175-.2.225-.375.225-.075 0-.15 0-.25-.025-.175-.025-.4-.15-.625-.275-.175.125-.35.275-.425.45v.075c0 .25.35.7.475.7.1.025.2.05.275.05.025 0 .1-.025.125-.025.2 0 .325 0 .125.725-.05.125-.45 1.2-.8 1.825 0-.775-.05-1.075-.15-1.4-.05-.175-.125-.275-.25-.3h-.075c-.125 0-.275.075-.375.075-.05 0-.1 0-.125-.025-.325-.1-.5-.575-.525-.975h-.15c-.375 0-.625.175-.7.5-.025.075-.025.125-.025.2 0 .3.4.45.4.65 0 .025.1.075-.475.45s-1.425.575-2 .85c.3-.225.9-.875 1-1.25.025-.025.025-.075.025-.1 0-.3-1-.6-.125-1.6-.075-.175-.2-.275-.375-.35a1.961 1.961 0 0 0-.35-.05c-.275 0-.325.2-.375.525-.05.325-.175.5-.45.5a1.68 1.68 0 0 1-.45-.075c-.15 0-1.225-.5-1.825-.775h.325c1.075 0 1.45-.275 1.45-.525 0-.025-.025-.05-.025-.125 0-.225-.025-.6.875-.8v-.1c0-.275-.025-.65-.5-.775h-.075c-.175 0-.35.35-.725.425h-.075c-.475 0-.975-1.625-1.25-2.325.375.275.75.775 1.225.9.05.025.1.025.125.025.25 0 .5-.5.775-.5.05 0 .125 0 .2.025.125.025.35.225.525.325.175-.175.375-.375.45-.55v-.1c0-.2-.225-.6-.425-.675-.05-.025-.1-.025-.175-.025-.075 0-.125.025-.15.025-.25 0-.325-.2-.325-.35 0-.1.025-.25.075-.425.075-.15.525-1.3.875-1.9 0 .075-.025.375-.025.575 0 .175-.025 1.075.375 1.175h.075c.1 0 .275-.05.375-.05.05 0 .1 0 .125.025.55.125.45.925.55.975a.732.732 0 0 0 .9-.55.73.73 0 0 0 .05-.225c0-.2-.4-.5-.4-.575 0-.025 0-.075.025-.1.15-.5 2.3-1.175 2.425-1.175-1.125.875-1 1.175-1 1.2 0 .325.4.525.4 1 0 .025.05.175-.275.75.275.275.45.425.525.45a.488.488 0 0 0 .175.025c.45 0 .35-.725.45-.9.05-.075.125-.125.25-.125.1 0 .4.05.6.125.125 0 1.275.5 1.875.775-.275 0-.575-.025-.775-.025-.2 0-.9.025-.95.275-.025.075-.025.15-.025.225v.25c0 .1 0 .2-.025.275-.075.3-.65.35-.95.525.1.3 0 .575.475.7.05.025.1.025.125.025.225 0 .15-.425.7-.425.725 0 .95 1.525 1.35 2.425Zm-16.9-7.3h2.75c.85 0 1.15-.2 1.6-1.25h.85l-.825 2.775H5v-.75c.4-.45.7-.775 1.3-1.375l1.675-1.675c.125-.125.225-.275.35-.4A3.57 3.57 0 0 0 8.7 9.6c.575-.675 1.175-1.35 1.175-2.275 0-1-.725-1.775-1.55-1.775-.975 0-1.8.725-2.475 2.25l-.825-.325c.775-2.2 2.05-3.35 3.65-3.35s2.95 1.275 2.95 2.9c0 1.8-1.675 3-2.925 4-.775.6-1.425 1.3-1.8 1.7Zm13.9 5.6c.025-.175.05-.35.05-.525 0-.225 0-.7-.275-1.225a2.486 2.486 0 0 0-1.45-1.15c-.2-.05-.4-.075-.6-.075-.225 0-.675.025-1.2.325-.525.3-.95.8-1.125 1.425-.05.175-.075.375-.075.55 0 .2 0 .6.3 1.15.3.55.775 1 1.475 1.2.2.075.4.1.625.1.175 0 .6 0 1.125-.3.525-.275.95-.775 1.15-1.475Z"/></svg>