<svg xmlns="http://www.w3.org/2000/svg" width="25" height="25" fill="none" data-manacost="B" data-testid="manaCostItem" viewBox="0 0 32 31"><path fill="#CCC2C0" d="M15.967 0C24.823 0 32 7.177 32 15.967 32 24.823 24.823 32 15.967 32 7.177 32 0 24.823 0 15.967 0 7.177 7.177 0 15.967 0Z"/><path fill="#000" d="M21.599 21.903v3.258c0 .065.225 2.355.225 2.516 0 .13-.16 1.42-.29 1.968-.546.13-.868.162-1.77.355-.353-1.355-.32-1.355-.32-1.645 0-.13.192-1.097.192-1.194 0-.161-.29-1.032-.482-1.58h-.612c-.29.355.064.483 0 1.677a32.35 32.35 0 0 0-1.866 1.29c-.032 0-.129-.064-.193-.064v-2.839c-.161-.322-.676-.129-.87-.161l-.482 3.774c-.997.065-.933 0-1.351 0-.29-1-.612-2.613-.998-3.935h-.322c-.193.516-.45 1.451-.45 1.516 0 .161.193 1.097.193 1.258 0 .129-.16 1.032-.193 1.58-.032.033-.032.065-.193.065-1.77 0-1.995-.871-1.93-2.29l.32-4.807c.033-.613.644-.322-.514-1.87-.129-.194-.837-.194-1.255-.291a78.323 78.323 0 0 0-2.67-.549C3.063 19.388 3 17 3 15.453c0-3.226 1.287-6.904 4.795-9.742.193.806.386 2.129.675 2.903.065.193.773.161 1.577.355.804.193 1.609.613 2.446.87-.515-.483-2.253-1.354-2.929-2.193-.547-.677-.675-2.516-.675-2.677 0-.613 2.831-1.613 3.571-1.678C13.555 3.13 14.07 3 15.775 3c2.445 0 5.406.323 8.077 2.58-.87 1.033-2.317 1.872-3.444 2.485 1.255.129 4.248-1.581 4.377-1.581.45 0 2.123 2.451 2.445 3a16.02 16.02 0 0 1 1.738 4.935c0 1.484.032 1.516.032 1.645-.032 6.13-7.401 2.872-7.401 5.84ZM8.921 11.936c-2.253 0-3.83 2.354-3.83 4.128 0 2.13 2.285 2 3.669 2.033l2.188.032c.804 0 2.67.13 2.67-1.42.033-2.096-2.38-4.774-4.697-4.774Zm8.527 7.483c-.225-.613-.45-1.58-.869-2.258l-.45 4.71c0 .194.16.548-.226.548-.16 0-.193-.032-.225-.064-.064-1.258-.29-3.42-.29-3.678v-1.419c-.032-.032-.128-.129-.193-.129-.868.935-1.35 3.097-1.35 4.548 0 .549-.033 1.71.32 2.13.998-.226.323-.355 1.642-.355 1.126 0 1.705.483 1.834.483.483 0 .386-2.032.386-2.16-.032-2 .129-.55-.579-2.356ZM23.079 12c-2.188 0-4.601 2.516-4.601 4.774 0 .807.515 1.42 1.351 1.42l4.634-.065c1.03 0 2.606-.29 2.606-2 0-1.903-1.705-4.129-3.99-4.129Z"/></svg>