<svg xmlns="http://www.w3.org/2000/svg" width="25" height="25" fill="none" data-manacost="(B/G)" data-testid="manaCostItem" viewBox="0 0 16 16"><g clip-path="url(#a)"><path fill="#C3BAB9" d="M7.993 0C12.427 0 16 3.586 16 7.993A8 8 0 0 1 7.993 16C3.6 16 0 12.414 0 7.993 0 3.586 3.586 0 7.993 0Z"/><path fill="#8CCEAB" d="M7.993 15.987c-2.196 0-4.208-.9-5.664-2.369L13.671 2.316A8.038 8.038 0 0 1 16 7.981c-.013 4.42-3.586 8.006-8.007 8.006Z"/><path fill="#070400" d="M6.696 6.365v.807c0 .027.067.609.067.635 0 .027-.053.37-.08.503-.145.027-.225.027-.45.08-.092-.331-.08-.331-.08-.41 0-.027.054-.265.054-.305 0-.026-.066-.251-.133-.397H5.93c-.08.093.013.132 0 .424-.159.092-.318.211-.477.317-.013 0-.026-.013-.053-.013v-.701c-.052-.08-.172-.027-.224-.053l-.133.952c-.251.027-.238 0-.344 0-.066-.251-.146-.648-.251-.979h-.08c-.053.132-.106.37-.106.384 0 .053.053.265.053.317 0 .027-.053.252-.053.398-.013 0-.013.013-.053.013-.463 0-.529-.225-.49-.57l.08-1.217c.013-.145.159-.08-.132-.476-.027-.053-.225-.053-.318-.066a12.744 12.744 0 0 0-.688-.146c-.662-.132-.701-.728-.701-1.125 0-.807.33-1.747 1.217-2.461.053.211.093.542.172.727.013.053.185.053.384.093.212.053.41.146.622.225-.132-.132-.556-.344-.728-.556-.145-.172-.172-.635-.172-.688 0-.159.715-.397.9-.423.278-.027.397-.067.847-.067.622 0 1.363.08 2.038.649-.225.251-.582.476-.86.622.304.026 1.059-.397 1.098-.397.106 0 .543.622.622.767.212.371.344.794.424 1.244 0 .384.013.397.013.424.026 1.535-1.84.715-1.84 1.469ZM3.494 3.864c-.57 0-.98.582-.98 1.032 0 .543.596.503.94.53h.556c.212.013.688.026.688-.345-.013-.556-.622-1.217-1.204-1.217ZM5.638 5.73c-.053-.146-.106-.397-.225-.57l-.106 1.192c0 .053.053.145-.053.145-.053 0-.066-.013-.066-.013-.027-.318-.08-.873-.08-.94v-.357c0-.013-.026-.026-.053-.026-.225.225-.344.78-.344 1.138 0 .145 0 .423.08.542.251-.066.092-.092.423-.092.265 0 .424.106.463.106.133 0 .093-.503.093-.543.013-.49.053-.12-.132-.582Zm1.429-1.866c-.556 0-1.165.635-1.165 1.204 0 .212.133.344.344.344h1.165c.265 0 .649-.08.649-.503.013-.476-.41-1.045-.993-1.045Zm6.617 7.967c-.093 0-.251-.027-.318-.093-.053-.053-.092-.132-.132-.172a9.44 9.44 0 0 0-.45-.027c-.304 0-1.032.292-1.059.331-.159.16-.238.887-.238 1.02 0 .304.053.462.41.568.093.027.278.093.318.093.013 0 .212-.013.238-.013.066 0 .45.053.41.185-.105.053-.264-.026-.463.066.053.027.172.093.252.133 0 .105-.252.105-.318.105-.172 0-.37-.066-.423-.066h-.106c-.027.08-.027.172-.066.265-.331-.013-.464-.37-.649-.37-.106 0-.264.396-.264.423-.186-.093-.252-.397-.292-.49-.159.014-.264.305-.344.397h-.053c-.106-.132-.092-.397-.145-.397a1.621 1.621 0 0 0-.556-.092c-.013 0-.238.026-.37.066l-.265-.027c.053-.053.555-.397.82-.397.027 0 .132.013.146.013.08 0 .344-.105.383-.172.014-.066.027-.29.027-.317 0-.543-.172-.98-1.098-1.138-.106.397-.49.542-.86.542-.345 0-.662-.542-.662-.78 0-.16.026-.371.29-.57-.184-.185-.237-.317-.237-.49 0-.25.158-.582.529-.634 0-.133 0-.305.212-.41-.067-.067-.106-.265-.106-.371 0-.41.317-.728.728-.728.158 0 .383.053.556.238.211-.701.661-.94 1.19-.94.623 0 .927.543.954.543.026 0 .132-.093.45-.093.463 0 .86.344 1.005.9 0 .014.133.014.212.053.146.08.212.252.212.37 0 .054-.053.107-.08.173.41.238.609.542.609.953 0 .159-.026.251-.132.463a.474.474 0 0 1 .238.41c-.026.238-.238.477-.503.477Zm-3.414-.186c0-.29-.331-.569-.636-.569-.145 0-.344.053-.49.106.385-.013.795.252 1.126.582v-.119Zm-.41-1.39c-.133.027-.398.08-.398.239.186-.013.464.093.636.093a1.906 1.906 0 0 1-.239-.331Zm.833-.383a1.627 1.627 0 0 0-.265-.027v.146c0 .066.225.265.265.305v-.424Zm.794-.027v.808c.278-.16.45-.37.424-.622-.16-.08-.225-.093-.424-.186Zm.741 1.046c-.344.265-.45.238-.728.569.318-.159.61-.251.94-.318-.08-.079-.146-.172-.212-.251Z"/></g><defs><clipPath id="a"><path fill="#fff" d="M0 0h16v16H0z"/></clipPath></defs></svg>