<svg xmlns="http://www.w3.org/2000/svg" width="25" height="25" fill="none" data-manacost="(B/P)" data-testid="manaCostItem" viewBox="0 0 16 16"><path fill="#9A8D89" d="M0 7.991a7.82 7.82 0 0 1 .627-3.108A8.018 8.018 0 0 1 4.883.627 7.851 7.851 0 0 1 7.991 0c1.113 0 2.155.212 3.126.627a8.017 8.017 0 0 1 4.256 4.256A7.82 7.82 0 0 1 16 7.991a7.894 7.894 0 0 1-.627 3.117 8.056 8.056 0 0 1-1.713 2.552 8.017 8.017 0 0 1-2.543 1.713A7.874 7.874 0 0 1 7.991 16a7.82 7.82 0 0 1-3.108-.627A8.018 8.018 0 0 1 2.34 13.66a7.959 7.959 0 0 1-1.713-2.552A7.863 7.863 0 0 1 0 7.991Z"/><path fill="#000" d="M9.316 12.556c-.062-.01-.133-.018-.203-.036a1.73 1.73 0 0 0-.204-.017c-.088 0-.14.009-.159.035-.008.009-.017.044-.017.115v.23c0 .088 0 .185-.009.282a4.86 4.86 0 0 1-.027.238c-.035.142-.07.3-.123.477a1.87 1.87 0 0 0-.08.274.69.69 0 0 0-.061.22 1.86 1.86 0 0 0-.018.221c0 .115.009.221.026.3.018.089.027.142.027.177a.425.425 0 0 1-.07.203c-.036.053-.08.106-.115.15a.965.965 0 0 0-.115.15.438.438 0 0 0-.071.177.888.888 0 0 0-.08-.327 3.738 3.738 0 0 1-.123-.273 1.817 1.817 0 0 1-.106-.31 1.544 1.544 0 0 1-.044-.44c0-.054 0-.115.009-.177.009-.062.009-.133.026-.203l-.115-.16v-.397c0-.035-.008-.07-.017-.123a1.498 1.498 0 0 0-.08-.256l-.035-.098a4.614 4.614 0 0 0-.053-.291c-.018-.08-.035-.132-.053-.15-.018-.018-.097-.027-.23-.027a.92.92 0 0 1-.326-.026l-.539-.177-1.033-.476a.56.56 0 0 0-.106-.265 1.92 1.92 0 0 0-.212-.257 2.808 2.808 0 0 0-.265-.211c-.088-.062-.168-.115-.23-.16l-.203-.202a1.491 1.491 0 0 1-.176-.221.606.606 0 0 1-.088-.186l-.08-.238c-.026-.08-.044-.15-.062-.212-.017-.062-.026-.106-.035-.124a.403.403 0 0 1-.044-.132c-.018-.08-.044-.177-.062-.291-.018-.115-.044-.248-.053-.398a3.666 3.666 0 0 1-.026-.432v-.16c0-.052.008-.105.017-.158 0-.036 0-.062.009-.097.009-.036.009-.062.009-.098a.302.302 0 0 0-.035-.159c-.018-.061-.053-.123-.089-.194a.41.41 0 0 1-.053-.203c.018-.115.053-.23.106-.344.044-.115.089-.212.124-.292.009-.053.018-.097.018-.14 0-.045.008-.09.017-.142 0-.044.009-.097.018-.16.035-.105.062-.176.106-.202a.807.807 0 0 1 .115-.07c.044-.018.08-.063.114-.116.036-.061.062-.167.08-.344L4.45 5.2c.115-.017.195-.053.23-.088a.17.17 0 0 0 .053-.115c0-.017 0-.044-.009-.07-.009-.027-.009-.053-.009-.089 0-.053.018-.097.044-.123.115-.018.239-.053.354-.097.123-.045.23-.098.326-.16.15-.114.274-.238.362-.361.097-.124.23-.23.398-.318a.556.556 0 0 1 .114-.027c.053-.009.124-.009.195-.017.07-.01.141-.01.203-.027a1.41 1.41 0 0 0 .503-.185.318.318 0 0 1 .194-.062c.044-.009.071-.07.097-.194a.536.536 0 0 1 .142-.283c.017-.018.035-.053.035-.106s.009-.08.009-.106c0-.062-.009-.106-.027-.115-.017-.017-.026-.053-.026-.106 0-.097.044-.203.141-.318.044-.053.062-.123.062-.22a1.26 1.26 0 0 0-.027-.256 1.26 1.26 0 0 1-.026-.256c.018-.168.053-.3.088-.398a1 1 0 0 1 .115-.238c.035-.062.07-.124.097-.177a.5.5 0 0 0 .036-.22c0-.018 0-.045-.01-.071-.008-.027-.008-.053-.008-.07.194.193.318.44.388.75.071.309.106.591.106.847v.195c0 .053-.008.106-.017.159-.018.061-.036.123-.036.176v.16c0 .176.027.335.089.458.026.124.07.274.088.46.009.044.062.07.141.097.089.017.168.035.256.035.018 0 .036 0 .053-.009.018-.009.027-.009.036-.009a.307.307 0 0 1 .114-.017c.071 0 .16.008.265.035.097.018.203.044.292.08.097.035.176.07.238.114s.097.088.097.124c0 .009-.009.026-.035.044-.009.018.035.053.132.097.098.044.212.097.345.15.123.062.247.115.353.168.106.053.159.097.159.124l.035.044a.312.312 0 0 1 .062.123.851.851 0 0 0 .115.212c0 .01.026.036.08.062.052.035.114.07.176.115.062.044.123.097.185.141.062.044.106.088.133.115.062.07.115.168.159.283.044.114.088.23.123.335.045.106.08.203.115.283.035.08.062.114.097.114.044 0 .07.062.097.186.018.123.036.274.045.45l.026.565c.009.195.009.362.009.504.018.008.035.061.035.15 0 .088.018.132.062.132 0 .07-.053.194-.15.362-.097.168-.15.318-.15.45 0 .098.035.168.115.204l-.415.476-.098.477a.925.925 0 0 1-.238.16.36.36 0 0 0-.194.202.47.47 0 0 1-.027.115 4.482 4.482 0 0 0-.053.177c-.017.061-.044.123-.061.185a.318.318 0 0 1-.045.106 1.135 1.135 0 0 1-.476.31l-.257.096c-.097.036-.22.106-.362.212l-.256.3a.474.474 0 0 1-.212.089c-.061.008-.159.008-.282.008l-.247.248ZM7.01 4.962a1.44 1.44 0 0 0-.442.23c-.097.079-.185.185-.273.326L6.1 5.58a2.41 2.41 0 0 0-.132.274c-.026.062-.124.097-.283.115-.061.123-.123.238-.176.335a3.33 3.33 0 0 1-.141.22c-.045.063-.071.09-.089.09-.009 0-.044.043-.115.14a.825.825 0 0 0-.123.274.177.177 0 0 0-.018.08c0 .053.018.097.053.114.036.027.053.071.053.124a1.024 1.024 0 0 1-.053.133c-.017.035-.035.07-.053.088a.31.31 0 0 1-.062.08c-.017.052-.035.096-.044.14-.017.106-.035.195-.035.274 0 .053.009.089.018.115a.398.398 0 0 0 .088.212.553.553 0 0 1 .106.327c0 .035 0 .062-.009.088-.009.026-.009.053-.009.07-.009.036-.017.054-.017.062a.735.735 0 0 0 .106.221.875.875 0 0 1 .088.203c.017.089.044.168.062.256a.598.598 0 0 0 .114.239c.036.035.071.088.115.168.044.079.106.159.186.247.07.088.167.168.273.247.106.08.239.133.389.168.168.035.282.088.335.168.053.08.133.132.239.15.053.017.115.035.176.044.062.009.124.018.177.035.062.009.124.018.194.036v-.398c0-.053 0-.106-.009-.168-.008-.062-.008-.114-.008-.168a1.085 1.085 0 0 1-.018-.176v-.124a1 1 0 0 0-.035-.3 1 1 0 0 1-.036-.3v-.124c.01.018.018 0 .036-.053.008-.062.017-.132.035-.212l.026-.247c.01-.08.01-.132.01-.168V8.6a.433.433 0 0 0-.045-.202.365.365 0 0 1-.044-.203c0-.018.009-.097.026-.221.018-.124.027-.265.027-.415 0-.097-.009-.185-.018-.274A.456.456 0 0 0 7.4 7.09l.098-1.077c0-.018 0-.036-.01-.044-.008-.01-.008-.027-.008-.045-.018-.097-.044-.194-.062-.291a1.742 1.742 0 0 1-.035-.309c0-.115.018-.23.044-.353a.658.658 0 0 0-.159-.018c-.035 0-.062 0-.088.009-.027.009-.053.009-.07.009H7.01v-.01Zm4.132 3.876c.045-.141.062-.256.062-.353a.518.518 0 0 0-.035-.203c-.018-.062-.044-.132-.062-.212a.612.612 0 0 1-.026-.124c0-.044.008-.07.017-.097a.164.164 0 0 0 .018-.061c.009 0 .018-.01.035-.036a.5.5 0 0 0 .044-.159.674.674 0 0 0-.044-.238c-.035-.07-.062-.141-.097-.194-.009-.01-.009-.018.018-.027.017-.009.035-.018.035-.035 0-.044-.026-.106-.08-.194a3.738 3.738 0 0 0-.185-.274c-.07-.088-.159-.203-.282-.345 0-.017.008-.053.008-.106 0-.123-.07-.247-.203-.362a2.629 2.629 0 0 0-.441-.309c-.168-.088-.31-.167-.442-.238-.132-.07-.194-.115-.194-.15 0-.053-.018-.088-.044-.106a.2.2 0 0 0-.097-.027l-.424-.026c0 .035.018.08.053.15.035.07.053.132.053.185 0 .01 0 .018-.009.027-.009.009-.009.009-.009.026a.304.304 0 0 0-.044.142c0 .017 0 .044.009.07a.272.272 0 0 1 .009.089c0 .044-.009.07-.018.097-.018-.009-.035.017-.053.097a.984.984 0 0 0-.026.238c0 .062.008.124.026.177a.193.193 0 0 0 .106.115c0 .088.009.168.035.247.018.08.036.159.036.247a.557.557 0 0 1-.044.194c-.036.018-.045.053-.045.089 0 .053.01.106.036.159a.516.516 0 0 1 .035.159c0 .053-.009.097-.035.123-.044.089-.08.212-.115.371a2.149 2.149 0 0 0-.044.45c0 .098.009.16.017.195l-.061.432c.017.15.044.283.08.415.017.115.043.221.061.327.018.106.035.177.035.23 0 .062 0 .141-.009.238-.008.097-.008.194-.017.292-.009.097-.009.203-.027.3a1.505 1.505 0 0 1-.035.247.515.515 0 0 1 .185-.027c.08 0 .142-.008.195-.035l.3-.203.22-.238c.045-.044.133-.071.274-.098a.685.685 0 0 0 .38-.194.964.964 0 0 0 .23-.326.542.542 0 0 1 .15-.23c.053-.018.08-.07.08-.159 0-.088.026-.159.079-.22.053-.063.106-.116.159-.168.061-.045.114-.168.167-.354Z"/></svg>