<svg xmlns="http://www.w3.org/2000/svg" width="25" height="25" fill="none" data-manacost="(B/R)" data-testid="manaCostItem" viewBox="0 0 16 16"><g clip-path="url(#clip0_2039_16487)"><path fill="#C3BAB9" d="M7.993 0C12.427 0 16 3.586 16 7.993A8 8 0 0 1 7.993 16C3.6 16 0 12.414 0 7.993 0 3.586 3.586 0 7.993 0Z"/><path fill="#F4A38A" d="M7.993 15.987c-2.197 0-4.208-.9-5.664-2.369L13.671 2.316A8.038 8.038 0 0 1 16 7.981a8.009 8.009 0 0 1-8.007 8.006Z"/><path fill="#070400" d="M6.71 6.365v.807c0 .027.066.609.066.635 0 .027-.053.37-.08.503-.145.027-.225.027-.45.08-.092-.331-.079-.331-.079-.41 0-.027.053-.265.053-.305 0-.026-.066-.251-.132-.397h-.146c-.08.093.013.132 0 .424-.159.092-.317.211-.476.317-.014 0-.027-.013-.053-.013v-.701c-.053-.08-.172-.027-.225-.053l-.133.952c-.251.027-.238 0-.344 0-.066-.251-.145-.648-.251-.979h-.08c-.052.132-.105.37-.105.384 0 .053.053.265.053.317 0 .027-.053.252-.053.398-.014 0-.014.013-.053.013-.463 0-.53-.225-.49-.57l.08-1.217c.013-.145.158-.08-.133-.476-.026-.053-.225-.053-.317-.066a12.744 12.744 0 0 0-.689-.146c-.661-.132-.701-.728-.701-1.125 0-.807.33-1.747 1.217-2.461.053.211.093.542.172.727.014.053.186.053.384.093.212.053.41.146.622.225-.132-.132-.556-.344-.728-.556-.145-.172-.172-.635-.172-.688 0-.159.715-.397.9-.423.265-.027.397-.067.847-.067.622 0 1.363.08 2.038.649-.225.251-.595.476-.86.622.304.026 1.059-.397 1.099-.397.105 0 .542.622.622.767.211.371.344.794.423 1.244 0 .384.013.397.013.424.013 1.535-1.84.715-1.84 1.469ZM3.494 3.864c-.57 0-.98.582-.98 1.032 0 .543.583.503.94.53h.556c.212.013.688.026.688-.345-.013-.556-.609-1.217-1.204-1.217ZM5.638 5.73c-.053-.146-.106-.397-.225-.57l-.106 1.192c0 .053.053.145-.053.145-.053 0-.066-.013-.066-.013-.027-.318-.08-.873-.08-.94v-.357c0-.013-.026-.026-.053-.026-.225.225-.344.78-.344 1.138 0 .145 0 .423.08.542.251-.066.092-.092.423-.092.278 0 .424.106.463.106.133 0 .093-.503.093-.543.013-.49.066-.12-.132-.582Zm1.43-1.866c-.557 0-1.166.635-1.166 1.204 0 .212.133.344.345.344H7.41c.265 0 .649-.08.649-.503.013-.476-.41-1.045-.993-1.045Zm5.306 9.264c-.146 0-.927.066-.927.304 0 .08.146.172.186.172.026 0 .635.026 1.045.026-.78.464-2.13.477-2.832.464-.98-.014-1.588-1.033-1.588-1.76 0-.94.728-1.694 1.654-1.694.37 0 .583.145.768.145.662 0 1.257-.582 1.403-.582-.027.423-.106 1.032-.688 1.363-.278.172-.41.317-.41.476 0 .252.396.305.476.305.37 0 .74-.583.714-.874a2.498 2.498 0 0 1 .027-.701c.013-.093.185-.424.37-.49 0 .172-.132.37-.132.582 0 .093.08.305.106.331.225-.08.41-.608.45-.979-.53-.026-1.257-.648-1.125-1.27.013.026.291.529.423.529.252 0 .093-1.112-.542-1.112-.344 0-.397.291-.9.291-.185 0-.476-.132-.609-.172.053-.066.953.067.953-.29 0-.292-1.098-.411-1.297-.45-.145-.014-.318-.014-.463-.027.013-.027.622-.159 1.165-.159 1.588 0 2.54.794 2.95 2.237.318-.265-.184-1.244-.238-1.417.503.662.795 1.27.795 1.92 0 1.085-.781 1.363-1.324 2.17.477-.132.94-.252 1.377-.728 0 .146-.067.251-.106.384-.318.794-.9 1.005-1.681 1.005ZM9.383 8.561c-.212.08-.318.384-.41.53-.053-.067-.053-.266-.08-.398-.132 0-.45.291-.569.344.066-.45.636-1.112 1.059-1.112.238 0 .45.133.45.371 0 .278-.37.212-.45.265Zm1.601 1.019c-.423 0-.397-.463-.873-.688.185-.16.49.225.662.225.158 0 .158-.265.41-.265.225 0 .318.185.318.33.013.279-.371.398-.517.398Z"/></g></svg>