<svg xmlns="http://www.w3.org/2000/svg" width="25" height="25" fill="none" data-manacost="C" data-testid="manaCostItem" viewBox="0 0 32 32"><path fill="#CCC2C0" d="M15.967 0C24.823 0 32 7.177 32 15.967 32 24.823 24.823 32 15.967 32 7.177 32 0 24.823 0 15.967 0 7.177 7.177 0 15.967 0Z"/><path fill="#000" d="M19.864 6.088C22.53 9.428 26.449 13.398 32 16a42.647 42.647 0 0 0-6.04 3.933A35.67 35.67 0 0 0 16 32a37.156 37.156 0 0 0-3.81-5.872A36.84 36.84 0 0 0 0 16c2.133-1.1 4.156-2.4 6.04-3.879A33.347 33.347 0 0 0 16 0a36.859 36.859 0 0 0 3.864 6.088Zm2.286 12.336A27.8 27.8 0 0 1 25.905 16c-3.499-1.562-5.831-3.986-7.51-6.088A21.08 21.08 0 0 1 16 6.142a20.28 20.28 0 0 1-6.095 7.488A23.032 23.032 0 0 1 6.15 16a21.77 21.77 0 0 1 7.51 6.25 20.388 20.388 0 0 1 2.332 3.609c1.586-3.394 4.02-5.765 6.158-7.435Z"/></svg>