<svg xmlns="http://www.w3.org/2000/svg" width="25" height="25" fill="none" data-manacost="(G/P)" data-testid="manaCostItem" viewBox="0 0 16 16"><g clip-path="url(#a)"><path fill="#80B092" d="M0 7.991a7.82 7.82 0 0 1 .627-3.108A8.018 8.018 0 0 1 4.883.627 7.851 7.851 0 0 1 7.991 0c1.113 0 2.155.212 3.126.627a8.017 8.017 0 0 1 4.256 4.256A7.82 7.82 0 0 1 16 7.991a7.894 7.894 0 0 1-.627 3.117 8.056 8.056 0 0 1-1.713 2.552 8.017 8.017 0 0 1-2.543 1.713A7.874 7.874 0 0 1 7.991 16a7.82 7.82 0 0 1-3.108-.627A8.018 8.018 0 0 1 2.34 13.66a7.959 7.959 0 0 1-1.713-2.552A7.863 7.863 0 0 1 0 7.991Z"/><path fill="#000" d="M9.254 12.554c-.064-.009-.138-.018-.21-.035a1.858 1.858 0 0 0-.212-.018c-.091 0-.146.009-.164.036-.01.008-.019.044-.019.114v.23c0 .088 0 .185-.009.282-.009.098-.018.177-.027.239-.037.141-.074.3-.129.477a1.817 1.817 0 0 0-.082.273.674.674 0 0 0-.064.22c-.01.072-.018.151-.018.222 0 .114.009.22.027.3.018.088.028.141.028.176a.415.415 0 0 1-.074.203c-.036.053-.082.106-.119.15-.046.045-.082.098-.119.15a.429.429 0 0 0-.073.177.863.863 0 0 0-.083-.326 3.677 3.677 0 0 1-.128-.274 3.123 3.123 0 0 1-.119-.31 1.492 1.492 0 0 1-.046-.44c0-.054 0-.115.01-.177l.027-.203-.147-.16v-.396c0-.036-.009-.071-.018-.124a1.458 1.458 0 0 0-.082-.256l-.037-.097a4.481 4.481 0 0 0-.055-.292c-.018-.08-.036-.132-.055-.15-.018-.017-.1-.026-.238-.026a.99.99 0 0 1-.339-.027l-.558-.176-1.072-.477a.548.548 0 0 0-.11-.265 1.937 1.937 0 0 0-.22-.256 2.864 2.864 0 0 0-.274-.212c-.092-.062-.175-.115-.239-.159l-.21-.203a1.503 1.503 0 0 1-.183-.22.597.597 0 0 1-.092-.186L3.64 10.1c-.028-.08-.046-.15-.065-.212-.018-.062-.027-.106-.036-.124a.394.394 0 0 1-.046-.132c-.018-.08-.046-.177-.064-.292a11.005 11.005 0 0 1-.055-.397 3.538 3.538 0 0 1-.028-.432v-.16c0-.052.01-.105.019-.158 0-.036 0-.062.009-.097.01-.036.01-.062.01-.098a.293.293 0 0 0-.038-.158c-.018-.062-.054-.124-.091-.195a.423.423 0 0 1-.055-.203c.018-.115.055-.23.11-.344.046-.115.091-.212.119-.291.01-.053.018-.098.018-.142 0-.044.01-.088.019-.141 0-.044.009-.097.018-.159.037-.106.073-.176.11-.203a.842.842 0 0 1 .119-.07c.046-.018.082-.062.119-.115.037-.062.064-.168.082-.345l.248-.432A.464.464 0 0 0 4.4 5.11a.168.168 0 0 0 .055-.114c0-.018 0-.045-.01-.071-.009-.026-.009-.053-.009-.088 0-.053.019-.097.046-.124a2.15 2.15 0 0 0 .376-.097c.128-.044.238-.097.339-.159.155-.115.283-.238.375-.362.1-.124.238-.23.412-.318a.595.595 0 0 1 .12-.026c.063-.01.127-.01.2-.018.074-.009.147-.009.211-.026.064-.018.138-.027.193-.045.155-.052.265-.097.33-.14a.338.338 0 0 1 .2-.063c.047-.008.074-.07.102-.194a.53.53 0 0 1 .146-.282c.018-.018.037-.053.037-.106s.009-.08.009-.106c0-.062-.01-.106-.028-.115-.018-.018-.027-.053-.027-.106 0-.097.046-.203.147-.318.045-.053.064-.123.064-.22 0-.089-.01-.168-.028-.257a1.217 1.217 0 0 1-.027-.256c.018-.167.055-.3.091-.397a.984.984 0 0 1 .12-.238c.036-.062.073-.124.1-.177a.484.484 0 0 0 .028-.291c-.01-.027-.01-.053-.01-.07.202.193.33.44.403.75.074.309.11.591.11.847v.194a.94.94 0 0 1-.018.16c-.018.061-.037.123-.037.176v.159c0 .176.028.335.092.459s.1.282.128.459c.01.044.064.07.147.097.091.018.174.035.265.035.019 0 .037 0 .055-.008.019-.01.028-.01.037-.01a.33.33 0 0 1 .119-.017c.073 0 .165.009.275.035.1.018.21.045.302.08.1.035.183.07.247.115.064.044.1.088.1.123 0 .01-.008.027-.036.044-.009.018.037.053.138.098.1.044.22.097.357.15.128.061.256.114.366.167.11.053.165.098.165.124l.037.044a.308.308 0 0 1 .064.124.84.84 0 0 0 .119.212c0 .008.027.035.082.061.055.036.12.071.184.115.063.044.128.097.192.141.064.045.11.089.137.115.064.07.12.168.165.283.046.115.092.23.128.335.046.106.083.203.12.283.036.08.063.115.1.115.046 0 .073.061.1.185.02.124.037.274.047.45l.027.565c.01.195.01.362.01.504.018.008.036.061.036.15 0 .088.018.132.064.132 0 .07-.055.194-.156.362-.1.168-.155.318-.155.45 0 .097.036.168.119.203l-.43.477-.102.477a.957.957 0 0 1-.247.159c-.11.053-.174.123-.201.203 0 .018-.01.062-.028.115a4.347 4.347 0 0 0-.055.176c-.018.062-.046.124-.064.186a.314.314 0 0 1-.046.106 1.17 1.17 0 0 1-.274.212c-.074.035-.147.07-.22.097l-.266.097c-.1.035-.229.106-.375.212l-.266.3a.502.502 0 0 1-.22.088c-.064.009-.165.009-.293.009l-.256.247Zm-2.39-7.593c-.211.07-.358.15-.459.23-.1.08-.192.185-.283.327l-.202.061a2.37 2.37 0 0 0-.137.274c-.028.062-.12.097-.293.115-.065.123-.129.238-.184.335-.055.089-.1.16-.146.221-.046.062-.073.097-.1.097-.01 0-.047.044-.12.141a.81.81 0 0 0-.128.274.171.171 0 0 0-.018.08c0 .053.018.097.054.114.037.027.055.071.055.124a1.009 1.009 0 0 1-.054.132.383.383 0 0 1-.055.089.312.312 0 0 1-.065.08c-.018.052-.036.096-.045.14-.019.106-.037.195-.037.274 0 .053.01.088.018.115a.392.392 0 0 0 .092.212.358.358 0 0 1 .091.185c.01.035.019.08.019.141 0 .036 0 .062-.01.089-.009.026-.009.053-.009.07-.009.036-.018.053-.018.062.037.097.073.168.11.22a.86.86 0 0 1 .092.204c.018.088.045.168.064.256a.59.59 0 0 0 .119.238.767.767 0 0 1 .119.168c.046.08.11.159.192.247a1.354 1.354 0 0 0 .696.415c.174.036.293.088.348.168.055.08.138.132.248.15.055.018.119.035.183.044.064.01.128.018.183.036.064.008.128.017.201.035v-.397c0-.053 0-.106-.009-.168-.009-.062-.009-.115-.009-.168a1.05 1.05 0 0 1-.018-.177v-.123c0-.115-.01-.22-.037-.3a1.426 1.426 0 0 1-.036-.3v-.124c.009.018.018 0 .036-.053.01-.062.018-.133.037-.212l.027-.247c.01-.08.01-.133.01-.168V8.6a.42.42 0 0 0-.046-.203.354.354 0 0 1-.046-.203c0-.018.009-.097.027-.221a2.58 2.58 0 0 0 .01-.689.445.445 0 0 0-.065-.194l.101-1.077c0-.018 0-.035-.009-.044-.01-.009-.037-.036-.037-.053-.018-.097-.045-.194-.064-.292a1.682 1.682 0 0 1-.036-.309c0-.114.018-.23.045-.353a.707.707 0 0 0-.164-.017c-.037 0-.065 0-.092.008-.028.01-.055.01-.073.01h-.074Zm4.286 3.876c.045-.141.064-.256.064-.353a.5.5 0 0 0-.037-.203c-.018-.062-.046-.132-.064-.212a.59.59 0 0 1-.027-.124c0-.044.009-.07.018-.097a.16.16 0 0 0 .018-.061c.01 0 .018-.01.037-.036a.488.488 0 0 0 .046-.159.653.653 0 0 0-.046-.238c-.037-.07-.064-.141-.101-.194-.01-.01-.01-.018.018-.027.019-.009.037-.017.037-.035 0-.044-.027-.106-.082-.194a3.751 3.751 0 0 0-.193-.274c-.073-.088-.165-.203-.293-.344 0-.018.01-.053.01-.106 0-.124-.074-.248-.211-.362a2.732 2.732 0 0 0-.458-.31c-.174-.088-.32-.167-.458-.238-.138-.07-.202-.114-.202-.15 0-.053-.018-.088-.046-.106a.215.215 0 0 0-.1-.026l-.43-.036c0 .036.018.08.054.15.037.071.055.133.055.186 0 .009 0 .018-.009.026-.01.01-.01.01-.01.027a.272.272 0 0 0-.045.141c0 .018 0 .044.01.07.008.027.008.054.008.09 0 .043-.009.07-.018.096-.018-.009-.037.018-.055.097a.952.952 0 0 0-.027.239c0 .062.009.123.027.176a.196.196 0 0 0 .11.115c0 .088.01.168.037.247.018.08.036.16.036.248a.539.539 0 0 1-.046.194c-.018.044-.036.08-.036.115 0 .052.009.105.036.158a.498.498 0 0 1 .037.16c0 .052-.009.096-.037.123a2.076 2.076 0 0 0-.165.821c0 .097.01.159.019.194l-.064.433c.018.15.046.282.082.415.019.115.046.22.064.327.019.105.037.176.037.23 0 .06 0 .14-.01.237-.008.098-.008.195-.017.292-.01.097-.01.203-.028.3-.01.097-.018.185-.037.247a.555.555 0 0 1 .193-.026.455.455 0 0 0 .201-.036l.312-.203.229-.238c.045-.044.137-.07.284-.097a.72.72 0 0 0 .393-.194.964.964 0 0 0 .239-.327.54.54 0 0 1 .155-.23c.055-.017.083-.07.083-.159 0-.088.027-.158.082-.22.055-.062.11-.115.165-.168.046-.062.1-.185.156-.37Z"/></g><defs><clipPath id="a"><path fill="#fff" d="M0 0h16v16H0z"/></clipPath></defs></svg>