<svg xmlns="http://www.w3.org/2000/svg" width="25" height="25" fill="none" data-manacost="G" data-testid="manaCostItem" viewBox="0 0 32 31"><path fill="#9BD3AE" d="M15.967 0C24.823 0 32 7.177 32 15.967 32 24.823 24.823 32 15.967 32 7.177 32 0 24.823 0 15.967 0 7.177 7.177 0 15.967 0Z"/><path fill="#000" d="M27.97 19.79c-.355 0-1.032-.19-1.322-.445-.193-.19-.45-.507-.547-.76a73.33 73.33 0 0 0-1.87-.064c-1.288 0-4.381 1.142-4.542 1.332-.677.697-.967 3.742-.967 4.312 0 1.269.194 1.903 1.74 2.379.387.126 1.192.38 1.321.38s.87-.032.999-.032c.29 0 1.933.159 1.772.793-.451.159-1.128-.158-1.965.222.193.159.805.38 1.127.54 0 .475-1.127.475-1.353.475-.773 0-1.514-.317-1.804-.317h-.516c-.129.349-.129.793-.225 1.173-1.418-.063-1.966-1.554-2.771-1.554-.451 0-1.128 1.65-1.128 1.776-.838-.38-1.095-1.649-1.257-2.061-.644.063-1.16 1.268-1.482 1.649h-.193c-.483-.54-.387-1.65-.612-1.65-.677-.19-1.321-.38-2.32-.38-.129 0-1.031.127-1.611.222l-1.16-.031c.193-.19 2.352-1.713 3.48-1.713.129 0 .515.064.644.064.322 0 1.482-.476 1.611-.761.065-.222.13-1.174.13-1.3 0-2.252-.774-4.091-4.64-4.789-.484 1.617-2.095 2.252-3.61 2.252C3.419 21.502 2 19.25 2 18.267c0-.697.161-1.585 1.257-2.41-.806-.792-1-1.332-1-2.093 0-1.014.645-2.441 2.256-2.6-.032-.539-.032-1.268.838-1.744C5.06 9.135 4.9 8.28 4.9 7.866c0-1.712 1.32-3.044 3.093-3.044.644 0 1.61.159 2.352.983C11.215 2.983 13.18 2 15.339 2c2.642 0 3.963 2.22 4.092 2.22.129 0 .516-.35 1.869-.35 1.933 0 3.64 1.428 4.22 3.743.033.127.548.095.87.222.613.317.87 1.078.87 1.49 0 .19-.16.476-.322.761 1.772.983 2.578 2.252 2.578 3.932 0 .666-.161 1.078-.548 1.966.773.444 1.031 1.11 1.031 1.744.032 1.015-.934 2.061-2.03 2.061Zm-14.467-.825c0-1.173-1.45-2.41-2.74-2.41-.611 0-1.481.19-2.093.507 1.643-.063 3.383 1.078 4.8 2.41v-.507h.033Zm-1.773-5.771c-.547.158-1.675.348-1.675.983.806-.064 1.965.444 2.739.38a6.545 6.545 0 0 1-1.064-1.363Zm3.512-1.586c-.322-.063-.708-.158-1.16-.158v.602c0 .286 1 1.11 1.16 1.3v-1.744Zm3.383-.158v3.393c1.16-.666 1.837-1.49 1.805-2.6-.677-.318-.934-.381-1.805-.793Zm3.158 4.376c-1.45 1.11-1.836.983-3.06 2.41a13.377 13.377 0 0 1 3.93-1.332 7.13 7.13 0 0 1-.87-1.078Z"/></svg>