<svg xmlns="http://www.w3.org/2000/svg" width="25" height="25" fill="none" data-manacost="(G/U/P)" data-testid="manaCostItem"><path fill="#8CCEAB" d="M12.49 0C19.417 0 25 5.604 25 12.49 25 19.396 19.417 25 12.49 25 5.625 25 0 19.396 0 12.49 0 5.604 5.604 0 12.49 0Z"/><path fill="#9FDCF9" d="M12.49 24.98a12.441 12.441 0 0 1-8.85-3.702L21.36 3.62A12.559 12.559 0 0 1 25 12.47c-.02 6.907-5.604 12.51-12.51 12.51Z"/><path fill="#000" d="M9.04 12.306c-.054-.007-.116-.015-.177-.03a1.53 1.53 0 0 0-.176-.014c-.077 0-.123.007-.139.03-.007.007-.015.037-.015.096v.194c0 .074 0 .156-.008.238a3.985 3.985 0 0 1-.023.2c-.03.12-.06.254-.107.402-.03.082-.054.157-.069.231a.569.569 0 0 0-.054.186c-.007.06-.015.127-.015.186 0 .097.008.186.023.253a.859.859 0 0 1 .023.149.35.35 0 0 1-.061.171c-.031.045-.07.09-.1.127a.817.817 0 0 0-.1.126.363.363 0 0 0-.061.149.73.73 0 0 0-.07-.275 3.128 3.128 0 0 1-.107-.231 1.501 1.501 0 0 1-.092-.26 1.264 1.264 0 0 1-.038-.373c0-.044 0-.096.008-.148.007-.052.007-.112.023-.171l-.1-.134v-.335c0-.03-.008-.06-.015-.104a1.235 1.235 0 0 0-.07-.216l-.03-.082a3.776 3.776 0 0 0-.046-.246c-.015-.067-.03-.111-.046-.126-.015-.015-.084-.022-.2-.022a.824.824 0 0 1-.283-.023l-.468-.149-.898-.402a.464.464 0 0 0-.092-.223 1.632 1.632 0 0 0-.184-.216 2.402 2.402 0 0 0-.23-.178l-.2-.134c-.06-.06-.122-.12-.176-.171a1.26 1.26 0 0 1-.153-.186.504.504 0 0 1-.077-.157l-.069-.2c-.023-.067-.038-.127-.054-.18-.015-.051-.023-.088-.03-.103a.333.333 0 0 1-.039-.112c-.015-.067-.038-.149-.053-.245-.016-.097-.039-.209-.046-.335a2.999 2.999 0 0 1-.023-.365v-.134c0-.044.007-.09.015-.134 0-.03 0-.052.008-.082.007-.03.007-.052.007-.081a.249.249 0 0 0-.03-.134c-.016-.053-.046-.105-.077-.164A.338.338 0 0 1 4 7.998c.015-.097.046-.194.092-.29.038-.097.077-.18.107-.246.008-.045.016-.082.016-.12 0-.036.007-.074.015-.118 0-.037.008-.082.015-.134.031-.09.054-.149.092-.171a.704.704 0 0 1 .1-.06c.039-.015.07-.052.1-.097a.762.762 0 0 0 .069-.29l.207-.364a.387.387 0 0 0 .2-.075.142.142 0 0 0 .045-.097c0-.014 0-.037-.007-.06-.008-.021-.008-.044-.008-.073 0-.045.015-.082.038-.105.1-.015.208-.044.307-.082.108-.037.2-.081.284-.133.13-.097.238-.201.315-.306.084-.104.199-.193.345-.267a.495.495 0 0 1 .1-.023c.045-.007.107-.007.168-.015.062-.007.123-.007.177-.022a1.244 1.244 0 0 0 .437-.156.282.282 0 0 1 .169-.052c.038-.008.06-.06.084-.164a.447.447 0 0 1 .123-.238c.015-.015.03-.045.03-.09 0-.044.008-.066.008-.089 0-.052-.008-.089-.023-.096-.015-.015-.023-.045-.023-.09 0-.082.038-.17.123-.268.038-.044.053-.104.053-.186 0-.074-.007-.141-.023-.216a1.032 1.032 0 0 1-.023-.215c.016-.142.046-.253.077-.335a.833.833 0 0 1 .1-.201c.03-.052.061-.104.084-.149a.41.41 0 0 0 .03-.186c0-.015 0-.037-.007-.06-.008-.022-.008-.044-.008-.059.17.164.277.372.338.633.061.26.092.498.092.714v.164c0 .044-.008.089-.015.134a.57.57 0 0 0-.031.148v.134c0 .15.023.283.077.387.023.104.061.23.076.387.008.037.054.06.123.082.077.015.146.03.223.03.015 0 .03 0 .046-.008.015-.007.023-.007.03-.007a.274.274 0 0 1 .1-.015c.061 0 .138.007.23.03a1.399 1.399 0 0 1 .46.164c.054.037.085.074.085.104 0 .007-.008.022-.031.037-.008.015.03.045.115.082.084.037.184.082.3.126.107.052.214.097.306.142.092.044.138.082.138.104l.03.037a.26.26 0 0 1 .054.104.713.713 0 0 0 .1.179c0 .007.023.03.07.052.045.03.099.06.153.097.053.037.107.081.16.119a.878.878 0 0 1 .116.096c.053.06.1.142.138.239.038.096.076.193.107.282.039.09.07.171.1.238.03.067.053.097.084.097.039 0 .062.052.085.156.015.105.03.231.038.38l.023.476c.008.164.008.305.008.424.015.008.03.052.03.127 0 .074.016.111.054.111 0 .06-.046.164-.13.306a.77.77 0 0 0-.13.38c0 .08.03.14.099.17l-.36.402-.085.402a.805.805 0 0 1-.207.134c-.092.044-.146.104-.169.171a.388.388 0 0 1-.023.097c-.015.044-.03.096-.046.148-.015.053-.038.105-.053.157a.266.266 0 0 1-.039.09.984.984 0 0 1-.414.26c-.061.022-.138.052-.223.081-.084.03-.191.09-.314.179l-.222.253a.418.418 0 0 1-.184.074c-.054.008-.139.008-.246.008l-.215.208Zm-2.003-6.4c-.176.06-.299.127-.383.194a1.109 1.109 0 0 0-.238.276l-.169.052a2.008 2.008 0 0 0-.115.23c-.023.052-.107.082-.245.097-.054.104-.108.2-.154.283a2.8 2.8 0 0 1-.122.186c-.039.052-.062.074-.077.074a.552.552 0 0 0-.1.12.685.685 0 0 0-.107.23.145.145 0 0 0-.015.067c0 .045.015.082.046.097.03.022.046.06.046.104a.849.849 0 0 1-.046.111c-.016.03-.031.06-.046.075-.016.03-.039.052-.054.067-.015.045-.03.082-.038.119-.016.09-.031.164-.031.23 0 .045.008.075.015.097a.33.33 0 0 0 .077.179.453.453 0 0 1 .092.275c0 .03 0 .052-.008.075-.007.022-.007.044-.007.06-.008.029-.016.044-.016.051.031.082.054.142.092.186.031.045.054.104.077.171.015.075.038.142.054.216a.498.498 0 0 0 .1.201c.03.03.06.075.1.142.037.067.091.134.16.208.062.074.146.141.238.208a.914.914 0 0 0 .337.142c.146.03.246.074.292.141a.3.3 0 0 0 .207.127c.046.014.1.03.153.037a.923.923 0 0 1 .154.03c.054.007.107.014.169.03v-.336c0-.044 0-.089-.008-.14-.008-.053-.008-.098-.008-.142a.889.889 0 0 1-.015-.15v-.103a.819.819 0 0 0-.03-.253.82.82 0 0 1-.031-.253v-.105c.007.015.015 0 .03-.044.008-.052.016-.112.03-.179l.024-.208c.008-.067.008-.112.008-.142v-.066a.356.356 0 0 0-.039-.172.3.3 0 0 1-.038-.17c0-.016.008-.083.023-.187s.023-.223.023-.35c0-.081-.008-.156-.015-.23a.376.376 0 0 0-.054-.164l.084-.908c0-.015 0-.03-.007-.037-.008-.007-.008-.022-.008-.037-.015-.082-.038-.164-.054-.246a1.425 1.425 0 0 1-.03-.26c0-.097.015-.194.038-.298A.588.588 0 0 0 7.26 5.9c-.03 0-.054 0-.077.008-.023.007-.046.007-.061.007h-.085v-.007Zm3.59 3.267a.976.976 0 0 0 .054-.297.425.425 0 0 0-.03-.171c-.016-.052-.04-.112-.055-.179a.5.5 0 0 1-.023-.104c0-.037.008-.06.016-.082a.134.134 0 0 0 .015-.052c.008 0 .015-.008.03-.03a.41.41 0 0 0 .04-.134.554.554 0 0 0-.04-.2c-.03-.06-.053-.12-.084-.164-.007-.008-.007-.015.016-.023.015-.007.03-.015.03-.03 0-.037-.023-.089-.069-.163a3.168 3.168 0 0 0-.16-.23c-.062-.075-.139-.172-.246-.291 0-.015.008-.045.008-.09 0-.104-.062-.208-.177-.304a2.287 2.287 0 0 0-.383-.26c-.146-.075-.269-.142-.384-.202-.115-.06-.169-.097-.169-.126 0-.045-.015-.075-.038-.09a.179.179 0 0 0-.084-.022l-.369-.022c0 .03.016.067.046.126.031.06.046.112.046.156 0 .008 0 .015-.007.023-.008.007-.008.007-.008.022a.25.25 0 0 0-.038.12c0 .014 0 .036.007.059.008.022.008.044.008.074 0 .037-.008.06-.015.082-.016-.007-.03.015-.046.082a.806.806 0 0 0-.023.2c0 .053.007.105.023.15a.165.165 0 0 0 .092.096c0 .075.007.142.03.209.016.067.031.134.031.208a.458.458 0 0 1-.038.164c-.03.015-.039.044-.039.074 0 .045.008.09.031.134.015.045.03.09.03.134 0 .045-.007.082-.03.104a1.759 1.759 0 0 0-.138.692c0 .082.008.134.015.164l-.053.365c.015.126.038.238.069.35.015.096.038.185.053.275.016.089.031.148.031.193 0 .052 0 .12-.008.201-.007.082-.007.164-.015.246-.008.082-.008.17-.023.253a1.231 1.231 0 0 1-.03.208.46.46 0 0 1 .16-.022.38.38 0 0 0 .17-.03l.26-.171.192-.201c.038-.037.115-.06.238-.082a.603.603 0 0 0 .33-.164.813.813 0 0 0 .199-.275.457.457 0 0 1 .13-.194c.046-.014.07-.06.07-.134 0-.074.022-.133.068-.186.046-.052.092-.096.138-.14.054-.038.1-.142.146-.299ZM18.04 20.306c-.054-.007-.116-.015-.177-.03a1.53 1.53 0 0 0-.177-.014c-.076 0-.122.007-.138.03-.007.007-.015.037-.015.096v.194c0 .074 0 .156-.008.238a3.987 3.987 0 0 1-.023.2c-.03.12-.06.254-.107.402-.03.082-.054.157-.069.231a.57.57 0 0 0-.054.186c-.007.06-.015.127-.015.186 0 .097.008.186.023.253a.863.863 0 0 1 .023.149.35.35 0 0 1-.061.171c-.031.045-.07.09-.1.127a.82.82 0 0 0-.1.126.364.364 0 0 0-.061.149.73.73 0 0 0-.07-.275 3.153 3.153 0 0 1-.107-.231 1.501 1.501 0 0 1-.092-.26 1.263 1.263 0 0 1-.038-.373c0-.044 0-.096.008-.148.007-.053.007-.112.023-.172l-.1-.134v-.334c0-.03-.008-.06-.015-.105a1.225 1.225 0 0 0-.07-.215l-.03-.082a3.707 3.707 0 0 0-.046-.246c-.015-.067-.03-.111-.046-.126-.015-.015-.084-.023-.2-.023a.824.824 0 0 1-.283-.022l-.468-.149-.898-.402a.464.464 0 0 0-.092-.223 1.633 1.633 0 0 0-.184-.216 2.403 2.403 0 0 0-.23-.178l-.2-.134c-.06-.06-.122-.12-.176-.171a1.259 1.259 0 0 1-.153-.186.503.503 0 0 1-.077-.156l-.069-.201c-.023-.067-.038-.127-.053-.18-.016-.051-.024-.088-.031-.103a.335.335 0 0 1-.039-.112c-.015-.067-.038-.149-.053-.245-.016-.097-.039-.209-.046-.335a3.007 3.007 0 0 1-.023-.365v-.134c0-.044.007-.09.015-.134 0-.03 0-.052.008-.082.007-.03.007-.052.007-.081a.25.25 0 0 0-.03-.134c-.016-.052-.046-.105-.077-.164a.338.338 0 0 1-.046-.171c.015-.097.046-.194.092-.29.038-.097.077-.18.107-.246.008-.045.016-.082.016-.12 0-.036.007-.074.015-.118 0-.037.008-.082.015-.134.031-.09.054-.149.093-.171a.708.708 0 0 1 .1-.06c.038-.015.068-.052.099-.097.03-.052.054-.14.069-.29l.207-.364a.387.387 0 0 0 .2-.075.143.143 0 0 0 .046-.096c0-.015 0-.038-.008-.06s-.008-.045-.008-.075c0-.044.016-.081.039-.104.1-.014.207-.044.306-.082.108-.037.2-.081.284-.133a1.5 1.5 0 0 0 .315-.306c.084-.104.199-.193.345-.267a.495.495 0 0 1 .1-.023c.045-.007.107-.007.168-.015.062-.007.123-.007.177-.022a1.24 1.24 0 0 0 .437-.156.281.281 0 0 1 .169-.052c.038-.008.06-.06.084-.164a.447.447 0 0 1 .123-.238c.015-.015.03-.045.03-.09 0-.044.008-.066.008-.089 0-.052-.008-.089-.023-.097-.015-.014-.023-.044-.023-.089 0-.082.038-.17.123-.268.038-.044.053-.104.053-.186 0-.074-.007-.141-.023-.215a1.028 1.028 0 0 1-.023-.216c.016-.142.046-.253.077-.335a.833.833 0 0 1 .1-.201c.03-.052.061-.104.084-.149a.41.41 0 0 0 .03-.186c0-.015 0-.037-.007-.06-.008-.022-.008-.044-.008-.059.17.164.277.372.338.633.061.26.092.498.092.714v.164c0 .044-.008.089-.015.134-.016.052-.031.104-.031.148v.134c0 .15.023.283.077.387.023.104.061.23.076.387.008.037.054.06.123.082.077.015.146.03.223.03.015 0 .03 0 .046-.008.015-.007.023-.007.03-.007a.275.275 0 0 1 .1-.015c.061 0 .138.008.23.03a1.398 1.398 0 0 1 .46.163c.054.038.085.075.085.105 0 .007-.008.022-.031.037-.008.015.03.045.115.082.084.037.184.082.3.126.107.052.214.097.306.142.092.044.138.082.138.104l.03.037a.26.26 0 0 1 .054.104.713.713 0 0 0 .1.179c0 .007.023.03.07.052.045.03.099.06.153.097.053.037.107.082.16.119a.88.88 0 0 1 .116.096c.053.06.1.142.138.239.038.096.076.193.107.282.038.09.07.171.1.238.03.067.053.097.084.097.039 0 .062.052.085.156.015.105.03.231.038.38l.023.476c.008.164.008.305.008.424.015.008.03.052.03.127 0 .074.016.111.054.111 0 .06-.046.164-.13.306a.77.77 0 0 0-.13.38c0 .08.03.14.099.17l-.36.402-.085.402a.805.805 0 0 1-.207.134c-.092.045-.146.104-.169.171a.388.388 0 0 1-.023.097c-.015.044-.03.097-.046.149-.015.052-.038.104-.054.156a.266.266 0 0 1-.038.09.984.984 0 0 1-.414.26c-.061.022-.138.052-.223.081-.084.03-.191.09-.314.179l-.222.253a.418.418 0 0 1-.184.074c-.054.008-.139.008-.246.008l-.215.208Zm-2.003-6.4c-.176.06-.299.127-.383.194a1.106 1.106 0 0 0-.238.276l-.169.052a1.996 1.996 0 0 0-.115.23c-.023.052-.107.082-.245.097-.054.104-.107.2-.154.283a2.81 2.81 0 0 1-.122.186c-.039.052-.062.074-.077.074a.557.557 0 0 0-.1.12.686.686 0 0 0-.107.23.146.146 0 0 0-.015.067c0 .045.015.082.046.097.03.022.046.06.046.104a.839.839 0 0 1-.046.111.325.325 0 0 1-.046.075.262.262 0 0 1-.054.067c-.015.044-.03.082-.038.119-.016.09-.031.164-.031.23 0 .045.008.075.015.097a.33.33 0 0 0 .077.179.452.452 0 0 1 .092.275c0 .03 0 .052-.008.075-.007.022-.007.044-.007.06-.008.029-.016.044-.016.051.031.082.054.142.092.186.031.045.054.105.077.172.015.074.038.14.054.215a.499.499 0 0 0 .1.201c.03.03.06.075.1.142.037.067.091.134.16.208.062.074.146.141.238.208a.914.914 0 0 0 .338.142c.145.03.245.074.29.141a.3.3 0 0 0 .208.127c.046.014.1.03.153.037a.922.922 0 0 1 .154.03c.053.007.107.014.169.03v-.336c0-.044 0-.089-.008-.14-.008-.053-.008-.098-.008-.142a.885.885 0 0 1-.015-.15v-.103a.82.82 0 0 0-.03-.253.817.817 0 0 1-.031-.253v-.104c.007.014.015 0 .03-.045.008-.052.016-.112.03-.179l.024-.208c.008-.067.008-.112.008-.142v-.067a.356.356 0 0 0-.039-.17.3.3 0 0 1-.038-.172c0-.015.008-.082.023-.186s.023-.223.023-.35c0-.081-.008-.156-.015-.23a.377.377 0 0 0-.054-.164l.084-.908c0-.015 0-.03-.007-.037-.008-.007-.008-.022-.008-.037-.015-.082-.038-.164-.054-.246a1.428 1.428 0 0 1-.03-.26c0-.097.015-.194.038-.298a.591.591 0 0 0-.138-.015c-.03 0-.054 0-.077.008-.023.007-.046.007-.061.007h-.085v-.007Zm3.59 3.267a.976.976 0 0 0 .054-.297c0-.06-.008-.12-.03-.171-.016-.052-.04-.112-.055-.179a.502.502 0 0 1-.023-.104c0-.037.008-.06.016-.082a.134.134 0 0 0 .015-.052c.008 0 .015-.008.03-.03a.41.41 0 0 0 .04-.134.553.553 0 0 0-.04-.2c-.03-.06-.053-.12-.084-.164-.007-.008-.007-.015.016-.023.015-.007.03-.015.03-.03 0-.037-.023-.089-.069-.163a3.17 3.17 0 0 0-.16-.23c-.062-.075-.139-.172-.246-.291 0-.015.008-.045.008-.09 0-.104-.062-.208-.177-.304a2.288 2.288 0 0 0-.383-.26c-.146-.075-.269-.142-.384-.202-.115-.06-.169-.097-.169-.126 0-.045-.015-.075-.038-.09a.18.18 0 0 0-.084-.022l-.369-.022c0 .03.016.067.046.126.031.06.046.112.046.157 0 .007 0 .014-.007.022-.008.007-.008.007-.008.022a.25.25 0 0 0-.038.12c0 .014 0 .036.007.059a.222.222 0 0 1 .008.074c0 .037-.008.06-.015.082-.016-.008-.03.015-.046.082a.809.809 0 0 0-.023.2c0 .053.007.105.023.15a.165.165 0 0 0 .092.096c0 .075.008.142.03.209.016.067.031.134.031.208a.458.458 0 0 1-.038.164c-.03.015-.039.044-.039.074 0 .045.008.09.031.134.015.045.03.09.03.134 0 .045-.007.082-.03.104a1.759 1.759 0 0 0-.138.692c0 .082.008.134.015.164l-.053.365c.015.126.038.238.069.35.015.096.038.185.053.275.016.089.031.149.031.193 0 .052 0 .12-.008.201-.007.082-.007.164-.015.246-.008.082-.008.17-.023.253a1.238 1.238 0 0 1-.03.208.46.46 0 0 1 .16-.022.38.38 0 0 0 .17-.03l.26-.171.192-.201c.038-.037.115-.06.238-.082a.603.603 0 0 0 .33-.164.813.813 0 0 0 .199-.275.456.456 0 0 1 .13-.194c.046-.014.07-.06.07-.133 0-.075.022-.134.068-.186.046-.053.092-.097.138-.142.054-.037.1-.141.146-.298Z"/></svg>