<svg xmlns="http://www.w3.org/2000/svg" width="25" height="25" fill="none" data-manacost="(G/W)" data-testid="manaCostItem" viewBox="0 0 16 16"><g clip-path="url(#a)"><path fill="#8CCEAB" d="M7.993 0C12.427 0 16 3.586 16 7.993A8 8 0 0 1 7.993 16C3.6 16 0 12.414 0 7.993.013 3.586 3.6 0 7.993 0Z"/><path fill="#FFFBD1" d="M7.993 15.987c-2.196 0-4.208-.9-5.664-2.369L13.671 2.316A8.038 8.038 0 0 1 16 7.981a8 8 0 0 1-8.007 8.006Z"/><path fill="#070400" d="M7.874 6.008c-.092 0-.251-.027-.317-.093-.053-.053-.093-.132-.133-.172a9.382 9.382 0 0 0-.45-.026c-.304 0-1.032.29-1.058.33-.16.16-.239.887-.239 1.02 0 .304.053.463.41.569.093.026.292.092.318.092.014 0 .212-.013.238-.013.067 0 .45.053.41.185-.105.053-.264-.026-.462.067.052.026.172.092.251.132 0 .106-.251.106-.318.106-.172 0-.37-.066-.423-.066h-.106c-.026.079-.026.172-.066.264-.331-.013-.463-.37-.649-.37-.106 0-.264.397-.264.423-.186-.092-.252-.397-.291-.49-.16.014-.265.305-.345.398h-.052c-.106-.133-.093-.397-.146-.397a1.62 1.62 0 0 0-.556-.093 2.45 2.45 0 0 0-.37.066l-.278-.026c.053-.053.555-.397.82-.397.027 0 .132.013.146.013.08 0 .344-.106.384-.172.013-.066.026-.291.026-.318 0-.542-.172-.98-1.098-1.138-.106.397-.49.543-.86.543-.345 0-.662-.543-.662-.781 0-.159.026-.37.29-.57-.184-.185-.237-.317-.237-.489 0-.251.158-.582.529-.635 0-.132 0-.305.212-.41-.066-.067-.106-.265-.106-.371 0-.41.317-.728.728-.728.158 0 .383.053.556.238.211-.701.661-.94 1.19-.94.623 0 .927.543.953.543.027 0 .133-.092.45-.092.464 0 .86.344 1.006.9 0 .013.133.013.212.053.145.079.212.251.212.37 0 .053-.053.106-.08.172.41.238.609.543.609.953 0 .159-.026.251-.132.463a.474.474 0 0 1 .238.41c-.013.239-.238.477-.49.477ZM4.46 5.809c0-.29-.331-.569-.635-.569-.146 0-.344.053-.49.106.384-.013.794.252 1.125.582V5.81Zm-.424-1.376c-.132.027-.397.08-.397.238.186-.013.464.093.636.093a2.581 2.581 0 0 1-.239-.331Zm.834-.384a1.63 1.63 0 0 0-.265-.026v.145c0 .067.225.265.265.305v-.424Zm.794-.026v.807c.291-.159.45-.37.424-.622-.16-.08-.225-.093-.424-.185Zm.741 1.045c-.344.265-.45.239-.728.57.318-.16.61-.252.94-.318-.08-.08-.146-.172-.212-.252Zm7.292 6.432c-.397-.093-.159.45-.688.304-.093-.013-.251-.092-.397-.172-.106.08-.238.186-.265.292-.053.211.252.476.305.49.33.079.49-.146.33.476-.026.079-.304.767-.502 1.164 0-.092.026-1.006-.252-1.085-.092-.013-.251.066-.37.027-.212-.067-.318-.371-.331-.623-.265-.026-.477.067-.543.318-.145.49.649.37-.066.82-.37.239-.9.371-1.27.543.185-.145.569-.569.635-.794.093-.317-.635-.397-.066-1.085-.027-.08-.146-.185-.239-.225-.86-.225-.052.847-1.032.57-.08-.014-.794-.319-1.164-.49 1.958.026.476-.689 1.667-.927.013-.212-.026-.476-.318-.556-.145-.026-.264.225-.502.265-.384.066-.649-1.059-.834-1.482.225.172.476.49.78.569.332.092.279-.397.702-.291.08.013.238.145.33.211.107-.092.252-.251.292-.344.027-.145-.145-.463-.278-.49-.225-.066-.53.146-.37-.49.026-.092.37-.806.555-1.203-.013.066-.092 1.032.225 1.111.08.014.252-.053.371-.013.344.093.278.582.344.622.265.066.53-.132.57-.344.105-.397-.279-.37-.213-.57.08-.317 1.483-.74 1.536-.74-1.417 1.098.105.794-.556 1.879.092.106.238.251.33.291.45.106.345-.49.397-.556.08-.145.41-.026.543 0 .093.014.794.305 1.191.49-.344 0-1.032-.066-1.098.159-.027.132.013.317-.027.476-.053.186-.41.238-.609.331.067.185.014.37.305.45.291.08.159-.251.53-.251.463-.014.582.979.86 1.535-.173-.159-.517-.583-.808-.662ZM11.54 9.224c-.794-.212-1.654.251-1.853 1.059-.185.688.212 1.6 1.086 1.84.727.184 1.6-.16 1.84-1.06.184-.728-.252-1.614-1.073-1.84Zm-.754 2.752c-.715-.185-1.138-.94-.966-1.654.185-.701.953-1.125 1.667-.94.715.186 1.165.953.966 1.655-.198.794-.98 1.125-1.667.94Z"/></g><defs><clipPath id="a"><path fill="#fff" d="M0 0h16v16H0z"/></clipPath></defs></svg>