<svg xmlns="http://www.w3.org/2000/svg" width="25" height="25" fill="none" data-manacost="R" data-testid="manaCostItem" viewBox="0 0 32 31"><path fill="#F9AA8F" d="M15.967 0C24.823 0 32 7.177 32 15.967 32 24.823 24.823 32 15.967 32 7.177 32 0 24.823 0 15.967 0 7.177 7.177 0 15.967 0Z"/><path fill="#000" d="M20.377 24.47c-.467 0-3.216.2-3.216 1.115 0 .286.467.63.66.63.137 0 2.254.114 3.683.114-2.749 1.658-7.505 1.715-9.951 1.658C8.144 27.93 6 24.213 6 21.526c0-3.403 2.53-6.147 5.773-6.147 1.292 0 2.09.486 2.666.486 2.364 0 4.426-2.173 4.921-2.173-.137 1.572-.412 3.774-2.392 5.003-.99.6-1.484 1.172-1.484 1.744 0 .915 1.402 1.115 1.677 1.115 1.292 0 2.611-2.173 2.501-3.202-.11-.83 0-1.744.138-2.573.055-.343.687-1.572 1.264-1.801 0 .686-.44 1.4-.44 2.173 0 .343.303 1.115.413 1.2.797-.285 1.43-2.172 1.567-3.602-1.87-.114-4.453-2.373-4.014-4.631.11.114 1.017 1.886 1.512 1.886.935 0 .33-4.06-1.842-4.06-1.264 0-1.429 1.059-3.188 1.059-.688 0-1.677-.458-2.117-.63.165-.257 3.326.258 3.326-1.029 0-1.057-3.82-1.572-4.563-1.63-.522-.056-1.127-.056-1.65-.142.056-.115 2.2-.572 4.097-.572 5.607 0 8.989 2.916 10.39 8.234 1.128-1-.66-4.546-.824-5.203 1.814 2.43 2.804 4.631 2.804 7.004 0 3.974-2.75 5.003-4.618 7.948 1.649-.457 3.27-.886 4.81-2.63 0 .543-.192.972-.385 1.4-1.182 2.888-3.216 3.717-5.965 3.717ZM9.877 7.717c-.688.314-1.1 1.4-1.403 1.944-.165-.258-.192-1.03-.302-1.487-.44.029-1.567 1.058-2.007 1.315.247-1.63 2.227-4.06 3.766-4.06.825 0 1.54.458 1.54 1.316-.028 1.029-1.293.829-1.595.972Zm5.662 3.716c-1.512 0-1.374-1.715-3.079-2.487.687-.6 1.787.83 2.392.83.55 0 .522-1.002 1.43-1.002.796 0 1.126.687 1.126 1.258 0 .973-1.374 1.401-1.87 1.401Z"/></svg>