<svg xmlns="http://www.w3.org/2000/svg" width="25" height="25" fill="none" data-manacost="(R/G)" data-testid="manaCostItem" viewBox="0 0 16 16"><g clip-path="url(#a)"><path fill="#F4A38A" d="M7.993 0C12.427 0 16 3.586 16 7.993A8 8 0 0 1 7.993 16C3.6 16 0 12.414 0 7.993 0 3.586 3.586 0 7.993 0Z"/><path fill="#8CCEAB" d="M7.993 15.987c-2.196 0-4.208-.9-5.664-2.369L13.671 2.316A8.038 8.038 0 0 1 16 7.981c-.013 4.42-3.586 8.006-8.007 8.006Z"/><path fill="#070400" d="M6.59 7.331c-.145 0-.926.066-.926.305 0 .08.146.172.185.172.027 0 .636.026 1.046.026-.78.463-2.13.477-2.832.463-.98-.013-1.588-1.032-1.588-1.76 0-.94.728-1.694 1.654-1.694.37 0 .582.146.768.146.661 0 1.257-.582 1.402-.582-.026.423-.106 1.032-.688 1.363-.278.172-.41.317-.41.476 0 .252.397.304.476.304.37 0 .741-.582.715-.873a2.497 2.497 0 0 1 .026-.701c.014-.093.186-.424.371-.49 0 .172-.132.37-.132.582 0 .093.08.305.106.331.225-.08.41-.609.45-.98-.53-.026-1.258-.648-1.125-1.27.013.027.278.53.423.53.252 0 .093-1.112-.542-1.112-.345 0-.398.291-.9.291-.186 0-.477-.132-.61-.172.054-.066.954.066.954-.291 0-.291-1.099-.41-1.297-.45-.146-.013-.318-.013-.463-.026.013-.027.622-.16 1.164-.16 1.588 0 2.541.795 2.951 2.237.318-.264-.185-1.244-.238-1.416.503.662.794 1.27.794 1.92 0 1.084-.78 1.362-1.323 2.17.476-.133.94-.252 1.376-.728 0 .145-.066.251-.106.384-.317.794-.9 1.005-1.68 1.005ZM3.6 2.766c-.212.079-.318.383-.41.529-.054-.066-.054-.265-.08-.397-.132 0-.45.291-.57.344.067-.45.636-1.112 1.06-1.112.238 0 .45.133.45.37 0 .279-.371.213-.45.266Zm1.6 1.019c-.423 0-.396-.464-.873-.689.186-.158.49.225.662.225.159 0 .159-.264.41-.264.225 0 .318.185.318.33.013.278-.37.398-.516.398Zm8.484 8.046c-.093 0-.252-.027-.318-.093-.053-.053-.092-.132-.132-.172a9.43 9.43 0 0 0-.45-.026c-.304 0-1.032.29-1.059.33-.158.16-.238.887-.238 1.02 0 .304.053.463.41.569.093.026.292.092.318.092.013 0 .212-.013.238-.013.066 0 .45.053.41.185-.105.053-.264-.026-.463.066.053.027.172.093.252.133 0 .106-.252.106-.318.106-.172 0-.37-.066-.423-.066h-.106c-.027.079-.027.172-.066.264-.331-.013-.464-.37-.649-.37-.106 0-.265.397-.265.423-.185-.092-.251-.397-.29-.49-.16.014-.265.305-.345.398h-.053c-.106-.133-.092-.397-.145-.397a1.62 1.62 0 0 0-.556-.093c-.013 0-.238.026-.37.066l-.279-.026c.053-.053.556-.397.82-.397.027 0 .133.013.147.013.079 0 .344-.106.383-.172.013-.066.027-.291.027-.318 0-.543-.172-.98-1.099-1.138-.106.397-.49.543-.86.543-.344 0-.662-.543-.662-.781 0-.159.027-.37.292-.57-.186-.184-.239-.317-.239-.489 0-.251.16-.582.53-.635 0-.132 0-.305.211-.41-.066-.067-.105-.265-.105-.37 0-.411.317-.729.727-.729.16 0 .384.053.556.238.212-.701.662-.94 1.191-.94.622 0 .927.543.953.543.027 0 .132-.092.45-.092.463 0 .86.344 1.006.9 0 .013.132.013.212.053.145.079.211.251.211.37 0 .053-.053.106-.079.172.41.238.609.543.609.953 0 .159-.027.252-.133.463a.474.474 0 0 1 .239.41c-.014.239-.225.477-.49.477Zm-3.414-.185c0-.292-.331-.57-.636-.57-.145 0-.344.053-.49.106.384-.013.795.252 1.126.583v-.12Zm-.41-1.39c-.133.027-.398.08-.398.238.186-.013.464.093.636.093a1.9 1.9 0 0 1-.239-.331Zm.82-.384a1.625 1.625 0 0 0-.265-.026v.145c0 .067.225.265.265.305v-.424Zm.794-.026v.807c.291-.159.45-.37.423-.622-.145-.08-.211-.093-.423-.185Zm.754 1.045c-.344.265-.45.239-.728.57.318-.16.61-.252.94-.318-.08-.08-.146-.172-.212-.252Z"/></g><defs><clipPath id="a"><path fill="#fff" d="M0 0h16v16H0z"/></clipPath></defs></svg>