<svg xmlns="http://www.w3.org/2000/svg" width="25" height="25" fill="none" data-manacost="(R/W)" data-testid="manaCostItem" viewBox="0 0 16 16"><g clip-path="url(#a)"><path fill="#F4A38A" d="M7.993 0C12.427 0 16 3.586 16 7.993A8 8 0 0 1 7.993 16C3.6 16 0 12.414 0 7.993.013 3.586 3.6 0 7.993 0Z"/><path fill="#FFFBD1" d="M7.993 15.987c-2.196 0-4.208-.9-5.664-2.369L13.671 2.316A8.038 8.038 0 0 1 16 7.981a8 8 0 0 1-8.007 8.006Z"/><path fill="#070400" d="M6.604 7.331c-.146 0-.927.066-.927.305 0 .08.146.172.186.172.026 0 .635.026 1.045.026-.78.463-2.13.477-2.832.463-.98-.013-1.588-1.032-1.588-1.76 0-.94.728-1.694 1.654-1.694.37 0 .583.146.768.146.662 0 1.257-.582 1.403-.582-.027.423-.106 1.032-.688 1.363-.278.172-.41.317-.41.476 0 .252.396.304.476.304.37 0 .74-.582.714-.873a2.496 2.496 0 0 1 .027-.701c.013-.093.185-.424.37-.49 0 .172-.132.37-.132.582 0 .093.08.305.106.331.225-.08.41-.609.45-.98-.53-.026-1.257-.648-1.125-1.27.013.027.278.53.423.53.252 0 .093-1.112-.542-1.112-.344 0-.397.291-.9.291-.185 0-.477-.132-.609-.172.053-.066.953.066.953-.291 0-.291-1.098-.41-1.297-.45-.145-.013-.318-.013-.463-.026.013-.027.622-.16 1.164-.16 1.589 0 2.541.795 2.952 2.237.317-.264-.186-1.244-.239-1.416.503.662.795 1.27.795 1.92 0 1.084-.781 1.362-1.324 2.17.476-.133.94-.252 1.376-.728 0 .145-.066.251-.105.384-.318.794-.914 1.005-1.681 1.005ZM3.613 2.766c-.212.079-.318.383-.41.529-.053-.066-.053-.265-.08-.397-.132 0-.45.291-.569.344.066-.45.635-1.112 1.059-1.112.238 0 .45.133.45.37 0 .279-.37.213-.45.266Zm1.601 1.019c-.423 0-.397-.464-.873-.689.185-.158.49.225.662.225.158 0 .158-.264.41-.264.225 0 .317.185.317.33.014.278-.37.398-.516.398Zm8.483 7.715c-.397-.093-.158.45-.688.304-.093-.013-.251-.092-.397-.172-.106.08-.238.186-.278.292-.053.211.252.476.305.49.33.079.49-.146.33.476-.026.079-.304.767-.502 1.164 0-.092.026-1.006-.252-1.085-.093-.013-.251.066-.37.027-.212-.067-.318-.371-.331-.623-.278-.026-.477.067-.543.318-.146.49.649.37-.066.82-.37.239-.9.371-1.27.543.185-.145.569-.569.635-.794.092-.317-.636-.397-.066-1.085-.027-.08-.146-.185-.239-.225-.86-.225-.053.847-1.032.57-.08-.014-.794-.319-1.165-.49 1.96.026.477-.689 1.668-.927.013-.212-.027-.476-.318-.556-.145-.026-.264.225-.503.265-.383.066-.648-1.059-.847-1.482.225.172.477.49.781.569.331.092.291-.397.702-.291.079.013.238.145.33.211.106-.092.252-.251.292-.344.026-.145-.146-.463-.265-.49-.225-.066-.53.146-.37-.49.026-.092.37-.806.555-1.203-.013.066-.092 1.032.225 1.111.08.014.252-.053.37-.013.345.093.265.582.345.622.265.066.53-.132.569-.344.106-.397-.265-.37-.212-.57.08-.317 1.482-.74 1.535-.74-1.416 1.098.106.794-.556 1.879.093.106.239.251.331.291.45.106.344-.49.397-.556.08-.145.41-.026.543 0 .093.014.794.305 1.191.49-.344 0-1.032-.066-1.098.159-.027.132.013.317-.027.476-.053.186-.41.238-.609.331.066.185.014.37.305.45.291.08.159-.251.53-.251.476-.04.608.966.873 1.521-.173-.145-.517-.569-.808-.648ZM11.54 9.224c-.794-.212-1.654.251-1.853 1.059-.185.688.212 1.6 1.086 1.84.727.184 1.6-.16 1.84-1.06.184-.728-.252-1.614-1.073-1.84Zm-.741 2.752c-.715-.185-1.138-.94-.966-1.654.185-.701.953-1.125 1.668-.94.714.186 1.164.953.966 1.655-.212.794-.993 1.125-1.668.94Z"/></g><defs><clipPath id="a"><path fill="#fff" d="M0 0h16v16H0z"/></clipPath></defs></svg>