<svg xmlns="http://www.w3.org/2000/svg" width="25" height="25" fill="none" data-manacost="U" data-testid="manaCostItem" viewBox="0 0 32 31"><path fill="#ABE1FA" d="M15.967 0C24.823 0 32 7.177 32 15.967 32 24.823 24.823 32 15.967 32 7.177 32 0 24.823 0 15.967 0 7.177 7.177 0 15.967 0Z"/><path fill="#000" d="M23.238 19.794c0 4.088-3.128 7.206-7.046 7.206C11.164 27 9 22.941 9 19.088 9 14.412 13.502 7.971 18.239 4c-.585 2.676-.497 1.824-.497 3.324 0 5.058 5.496 7.705 5.496 12.47Zm-1.52-.559c0-1-.76-3.235-1.813-3.764.439 1.088-.79 4-.79 4.294 0 .706.556 1.294 1.287 1.294 1.082-.03 1.316-1.118 1.316-1.824Z"/></svg>