<svg xmlns="http://www.w3.org/2000/svg" width="25" height="25" fill="none" data-manacost="(U/P)" data-testid="manaCostItem" viewBox="0 0 16 16"><g clip-path="url(#a)"><path fill="#8EBBD0" d="M0 7.991a7.82 7.82 0 0 1 .627-3.108A8.018 8.018 0 0 1 4.883.627 7.851 7.851 0 0 1 7.991 0c1.113 0 2.155.212 3.126.627a8.017 8.017 0 0 1 4.256 4.256A7.82 7.82 0 0 1 16 7.991a7.894 7.894 0 0 1-.627 3.117 8.056 8.056 0 0 1-1.713 2.552 8.017 8.017 0 0 1-2.543 1.713A7.874 7.874 0 0 1 7.991 16a7.82 7.82 0 0 1-3.108-.627A8.018 8.018 0 0 1 2.34 13.66a7.959 7.959 0 0 1-1.713-2.552A7.863 7.863 0 0 1 0 7.991Z"/><path fill="#000" d="M9.316 12.556c-.062-.009-.133-.018-.203-.035a1.71 1.71 0 0 0-.204-.018c-.088 0-.14.009-.159.035-.008.009-.017.044-.017.115v.23c0 .088 0 .185-.009.282a4.886 4.886 0 0 1-.027.239c-.035.14-.07.3-.123.476a1.865 1.865 0 0 0-.08.274.69.69 0 0 0-.061.22 1.457 1.457 0 0 0 .009.521c.017.09.026.142.026.177a.425.425 0 0 1-.07.204c-.036.052-.08.105-.124.15-.044.044-.08.097-.115.15a.437.437 0 0 0-.07.176.89.89 0 0 0-.08-.327 3.733 3.733 0 0 1-.124-.273c-.044-.097-.08-.203-.115-.31a1.547 1.547 0 0 1-.044-.44c0-.054 0-.115.01-.177.008-.062.008-.133.026-.203l-.133-.16v-.397c0-.035-.009-.07-.018-.123a1.5 1.5 0 0 0-.08-.256l-.026-.098a4.588 4.588 0 0 0-.053-.29c-.017-.08-.035-.133-.052-.151-.018-.018-.098-.027-.23-.027a.923.923 0 0 1-.327-.026l-.538-.177-1.034-.476a.559.559 0 0 0-.106-.265 1.92 1.92 0 0 0-.211-.256 2.777 2.777 0 0 0-.265-.212c-.089-.062-.168-.115-.23-.16l-.203-.202a1.48 1.48 0 0 1-.177-.221.605.605 0 0 1-.088-.186l-.08-.238c-.026-.08-.044-.15-.061-.212-.018-.062-.027-.106-.036-.123a.404.404 0 0 1-.044-.133c-.017-.08-.044-.177-.061-.291-.018-.115-.045-.248-.053-.398a1.97 1.97 0 0 1-.045-.441v-.16c0-.052.01-.105.018-.158 0-.035 0-.062.009-.097a.362.362 0 0 0 .009-.097.302.302 0 0 0-.036-.16 1.766 1.766 0 0 0-.088-.185.352.352 0 0 1-.062-.212c.018-.114.053-.23.106-.344.053-.106.089-.203.124-.291.009-.053.018-.097.018-.142 0-.044.008-.088.017-.141 0-.044.009-.097.018-.159.026-.106.053-.176.097-.203a.807.807 0 0 1 .115-.07c.044-.018.08-.062.115-.115.026-.062.053-.177.079-.345l.238-.432c.115-.018.195-.053.23-.089a.155.155 0 0 0 .053-.115c0-.017 0-.044-.009-.07-.009-.027-.009-.053-.009-.088 0-.053.018-.098.045-.124.123-.027.247-.053.362-.097.123-.044.23-.097.326-.16.15-.114.274-.238.362-.361.097-.124.23-.23.398-.318.026-.018.07-.018.123-.027.053-.008.124-.008.195-.017.07-.01.132-.01.203-.027a1.41 1.41 0 0 0 .503-.185.318.318 0 0 1 .194-.062c.044-.009.07-.07.097-.194a.528.528 0 0 1 .133-.283c.026-.026.035-.062.044-.106.009-.044.009-.08.009-.106 0-.062-.01-.106-.027-.114-.017-.018-.026-.053-.026-.106 0-.098.044-.204.141-.318.044-.053.062-.124.062-.221a1.26 1.26 0 0 0-.027-.256 1.265 1.265 0 0 1-.026-.256c.018-.168.053-.3.088-.398a1 1 0 0 1 .115-.238c.035-.062.07-.124.097-.177A.501.501 0 0 0 8.08.46c0-.018 0-.044-.008-.071.008-.026 0-.053 0-.07.194.194.317.44.388.75.07.318.106.6.106.856v.195a.973.973 0 0 1-.018.159c-.017.061-.035.123-.035.176v.16c0 .176.027.335.088.458.062.124.106.274.124.46.009.044.062.07.141.097.089.017.168.035.256.035.018 0 .036 0 .053-.009.018-.009.027-.009.036-.009a.307.307 0 0 1 .114-.017c.071 0 .16.008.265.035.097.018.195.044.292.08a1 1 0 0 1 .238.114c.062.044.097.089.097.124 0 .009-.009.026-.035.044-.009.018.035.053.132.097.098.044.212.097.345.15.123.062.247.115.353.168.106.053.159.097.159.124l.035.044a.31.31 0 0 1 .062.123.851.851 0 0 0 .115.212c0 .01.026.036.08.062.052.027.114.07.176.115.062.044.124.097.185.141.062.044.106.088.133.115a.95.95 0 0 1 .159.283c.044.114.088.23.123.335.045.106.08.203.115.283.035.08.062.114.097.114.044 0 .07.062.097.186.018.124.036.274.045.45l.026.565c.009.195.009.362.009.504.018.008.035.061.035.15 0 .088.018.132.062.132 0 .07-.053.194-.15.362-.097.168-.15.318-.15.45 0 .098.035.168.115.204l-.415.476-.098.477a.925.925 0 0 1-.238.16.36.36 0 0 0-.194.202.47.47 0 0 1-.027.115 4.482 4.482 0 0 0-.053.177c-.017.061-.044.123-.061.185a.318.318 0 0 1-.045.106 1.134 1.134 0 0 1-.476.31l-.257.096a1.5 1.5 0 0 0-.362.212l-.256.3a.473.473 0 0 1-.212.089c-.07.009-.159.009-.282.009l-.247.247ZM7.01 4.962a1.34 1.34 0 0 0-.442.23c-.088.079-.176.185-.273.326L6.1 5.58a3.61 3.61 0 0 0-.132.265c-.026.07-.124.106-.283.115-.061.123-.123.238-.176.335a3.333 3.333 0 0 1-.141.221c-.045.062-.071.097-.089.097-.009 0-.044.044-.115.141a.825.825 0 0 0-.123.274c-.018.018-.018.044-.018.08 0 .053.018.097.053.114.036.027.053.071.053.124a1.027 1.027 0 0 1-.053.133.386.386 0 0 1-.053.088.483.483 0 0 0-.062.08.565.565 0 0 0-.053.14 1.669 1.669 0 0 0-.026.274c0 .053.009.089.018.115a.398.398 0 0 0 .088.212.553.553 0 0 1 .106.327c0 .035 0 .062-.009.088-.009.027-.009.053-.009.07-.009.036-.017.054-.017.063a.735.735 0 0 0 .106.22.876.876 0 0 1 .088.203c.017.089.044.168.062.256a.598.598 0 0 0 .114.239c.036.035.071.088.115.168.044.08.106.159.186.247a1.5 1.5 0 0 0 .273.247c.106.08.239.133.389.168.168.035.282.088.335.168.053.08.133.132.239.15.053.017.115.035.176.044.062.009.124.018.177.035.062.009.124.018.194.036v-.398c0-.053 0-.106-.009-.168-.008-.062-.008-.114-.008-.167a1.087 1.087 0 0 1-.018-.177v-.124a1 1 0 0 0-.035-.3 1 1 0 0 1-.036-.3v-.124c.01.018.018 0 .036-.053.008-.061.017-.132.035-.212l.026-.247c-.008-.097 0-.15 0-.185V8.6a.433.433 0 0 0-.044-.203.397.397 0 0 1-.053-.212c0-.018.01-.097.027-.22a2.673 2.673 0 0 0 .009-.689.456.456 0 0 0-.062-.195l.088-1.077c0-.018 0-.035-.009-.044-.009-.01-.009-.027-.009-.044-.017-.098-.044-.195-.061-.3a1.742 1.742 0 0 1-.036-.31c0-.114.018-.23.045-.353-.027-.009-.08-.009-.15-.009-.036 0-.062 0-.089.01-.026.008-.053.008-.07.008h-.08Zm4.132 3.876c.045-.14.062-.256.062-.353a.518.518 0 0 0-.035-.203c-.018-.062-.044-.132-.062-.212a.612.612 0 0 1-.026-.123.27.27 0 0 1 .017-.098.164.164 0 0 0 .018-.061c.009 0 .018-.01.035-.036a.5.5 0 0 0 .044-.159.674.674 0 0 0-.044-.238 1 1 0 0 0-.097-.194c-.018 0-.018-.01.009-.018.018-.009.035-.018.035-.035 0-.044-.026-.106-.08-.195a3.77 3.77 0 0 0-.185-.273c-.07-.089-.159-.203-.273-.345 0-.026.008-.061.008-.114 0-.124-.07-.248-.203-.363a2.633 2.633 0 0 0-.441-.309c-.168-.088-.31-.167-.442-.238-.132-.07-.203-.115-.203-.15 0-.053-.017-.088-.044-.106a.201.201 0 0 0-.097-.027l-.415-.026c0 .035.018.08.053.15.035.07.053.133.053.186 0 .008 0 .017-.009.026v.018a.279.279 0 0 0-.044.141c0 .018 0 .044.009.07a.272.272 0 0 1 .009.089c0 .044-.01.07-.018.097-.027-.009-.044.018-.062.097-.018.08-.018.15-.018.239a.57.57 0 0 0 .027.176.193.193 0 0 0 .106.115c0 .088.009.168.035.247.018.08.036.16.036.247a.556.556 0 0 1-.045.195c-.044.026-.053.061-.053.097 0 .053.01.106.036.159a.516.516 0 0 1 .035.159c0 .053-.009.097-.035.123-.044.089-.08.212-.115.38a2.77 2.77 0 0 0-.044.45c0 .097.009.16.017.195l-.061.432c.017.15.044.283.08.415.017.115.043.221.061.327.018.106.035.177.035.23 0 .061 0 .14-.009.238-.008.097-.008.194-.017.291l-.027.3a1.5 1.5 0 0 1-.035.248.517.517 0 0 1 .185-.027c.08.01.15-.008.204-.035l.3-.203.22-.239c.045-.044.133-.07.274-.097a.685.685 0 0 0 .38-.194.964.964 0 0 0 .23-.327.542.542 0 0 1 .15-.23c.053-.017.08-.07.08-.158s.026-.159.079-.22c.053-.063.105-.116.159-.169.053-.053.105-.176.158-.362Z"/></g><defs><clipPath id="a"><path fill="#fff" d="M0 0h16v16H0z"/></clipPath></defs></svg>