<svg xmlns="http://www.w3.org/2000/svg" width="25" height="25" fill="none" data-manacost="(U/R)" data-testid="manaCostItem" viewBox="0 0 16 16"><g clip-path="url(#a)"><path fill="#9FDCF9" d="M7.993 0C12.427 0 16 3.586 16 7.993A8 8 0 0 1 7.993 16C3.6 16 0 12.414 0 7.993 0 3.586 3.6 0 7.993 0Z"/><path fill="#F4A38A" d="M7.993 15.987c-2.196 0-4.208-.9-5.664-2.369L13.671 2.316A8.038 8.038 0 0 1 16 7.981a8 8 0 0 1-8.007 8.006Z"/><path fill="#070400" d="M7.292 6.22c0 1.364-1.046 2.383-2.356 2.383-1.667 0-2.382-1.337-2.382-2.607 0-1.562 1.496-3.68 3.07-4.99-.185.887-.158.61-.158 1.099 0 1.68 1.826 2.554 1.826 4.116Zm-.503-.171c0-.331-.251-1.06-.609-1.258.146.37-.264 1.337-.264 1.43 0 .225.172.41.423.41.37.013.45-.357.45-.582Zm7.292 6.074c.053-.132.106-.238.106-.384-.45.477-.9.609-1.377.728.543-.807 1.324-1.098 1.324-2.17 0-.649-.291-1.258-.794-1.92.053.173.556 1.139.238 1.417-.423-1.456-1.376-2.25-2.964-2.25-.543 0-1.138.132-1.165.159.146.013.318.013.463.026.212.027 1.297.16 1.297.45 0 .344-.9.225-.953.291.133.053.41.172.61.172.502 0 .555-.29.899-.29.635 0 .794 1.11.543 1.11-.146 0-.41-.489-.424-.528-.132.622.609 1.244 1.125 1.27-.027.384-.225.913-.437.993a.882.882 0 0 1-.106-.331c0-.225.133-.41.133-.583-.172.067-.344.398-.37.49a1.792 1.792 0 0 0-.027.702c.026.29-.344.873-.715.873-.08 0-.476-.053-.476-.304 0-.16.132-.305.41-.477.569-.33.648-.94.688-1.363-.146 0-.728.582-1.403.582-.172 0-.397-.145-.767-.145-.927 0-1.655.767-1.655 1.694 0 .728.61 1.747 1.589 1.76.701.013 2.05 0 2.832-.463-.41 0-1.02-.027-1.046-.027-.053 0-.185-.093-.185-.172 0-.238.78-.304.926-.304.755 0 1.337-.212 1.681-1.006ZM9.833 8.285c0-.238-.212-.37-.45-.37-.424 0-1.006.661-1.059 1.111.132-.066.45-.344.57-.344.026.132.026.331.079.397.092-.145.211-.45.41-.53.093-.039.45.027.45-.264Zm1.68.9c0-.146-.092-.33-.317-.33-.252 0-.252.264-.41.264-.172 0-.477-.384-.662-.225.476.225.45.688.873.688.146 0 .517-.12.517-.397Z"/></g><defs><clipPath id="a"><path fill="#fff" d="M0 0h16v16H0z"/></clipPath></defs></svg>