<svg xmlns="http://www.w3.org/2000/svg" width="25" height="25" fill="none" data-manacost="W" data-testid="manaCostItem" viewBox="0 0 32 31"><path fill="#FFFCD5" d="M15.967 0C24.823 0 32 7.177 32 15.967 32 24.823 24.823 32 15.967 32 7.177 32 0 24.823 0 15.967 0 7.177 7.177 0 15.967 0Z"/><path fill="#000" d="M25.465 15.942c-1.43 0-.137 1.74-2.09 1.74-.33 0-.962-.143-1.54-.286-.274.428-.66.97-.66 1.311 0 .77 1.293 1.455 1.486 1.455 1.237 0 1.594-.998 1.594 1.397 0 .342-.33 3.079-.687 4.675-.11-.342-.825-3.62-1.87-3.62-.302 0-.797.427-1.21.427-.825 0-1.43-.998-1.787-1.881-.935.142-1.567.684-1.567 1.653 0 1.882 2.612.684.577 3.022-1.072 1.198-2.805 2.167-3.932 3.165.55-.713 1.512-2.595 1.512-3.478 0-1.255-2.612-.77-1.237-3.82-.193-.257-.688-.543-1.072-.543-3.19 0 .604 3.051-3.025 3.051-.303 0-3.08-.342-4.482-.627 6.82-1.768.99-2.908 4.922-4.961-.165-.741-.55-1.625-1.65-1.625-.522 0-.715 1.055-1.512 1.425-1.21.57-3.163-3.25-4.235-4.561.935.427 2.09 1.34 3.217 1.34 1.238 0 .605-1.74 2.145-1.74.302 0 .962.286 1.375.428.275-.428.66-1.169.66-1.54 0-.57-.935-1.54-1.403-1.54-.797 0-1.677 1.027-1.677-1.396 0-.342.523-3.25.798-4.847 0 .257.604 3.763 1.814 3.763.275 0 .798-.427 1.21-.427 1.348 0 1.54 1.882 1.815 1.882.99 0 1.677-.913 1.677-1.797 0-1.54-1.264-1.026-1.264-1.796 0-1.254 4.454-4.105 4.62-4.191-3.85 5.332 1.126 2.766-.166 7.299.412.313 1.072.684 1.402.684 1.65 0 .743-2.081.853-2.366.137-.542 1.375-.485 1.87-.485.33 0 3.024.342 4.564.627-1.21.342-3.63.77-3.63 1.597 0 .542.33 1.169.33 1.739 0 .77-1.21 1.283-1.787 1.768.385.627.385 1.34 1.485 1.34 1.017 0 .302-1.055 1.54-1.454 1.595-.485 2.942 3.022 4.427 4.761-.715-.4-2.337-1.568-3.41-1.568Zm-9.596-6.13c-2.942 0-5.445 2.509-5.472 5.617 0 2.623 2.255 5.56 5.472 5.56 2.695 0 5.444-2.082 5.417-5.56 0-2.794-2.338-5.617-5.417-5.617Zm0 10.635c-2.695 0-4.895-2.31-4.895-4.99 0-2.708 2.227-4.99 4.895-4.99 2.64 0 4.894 2.31 4.894 4.99 0 3.05-2.365 4.99-4.894 4.99Z"/></svg>