<svg xmlns="http://www.w3.org/2000/svg" width="25" height="25" fill="none" data-manacost="(W/B)" data-testid="manaCostItem" viewBox="0 0 16 16"><g clip-path="url(#a)"><path fill="#FFFBD1" d="M7.993 0C12.427 0 16 3.586 16 7.993A8 8 0 0 1 7.993 16C3.6 16 0 12.414 0 7.993.013 3.586 3.6 0 7.993 0Z"/><path fill="#C3BAB9" d="M7.993 15.987c-2.196 0-4.208-.9-5.664-2.369L13.671 2.316A8.038 8.038 0 0 1 16 7.981a8 8 0 0 1-8.007 8.006Z"/><path fill="#070400" d="M7.954 5.796c-.397-.092-.16.45-.688.305-.093-.014-.252-.093-.397-.172-.106.079-.239.185-.265.29-.053.213.251.477.304.49.331.08.49-.145.331.477-.04.066-.304.754-.516 1.151 0-.092.027-1.006-.251-1.085-.093-.013-.252.066-.371.026-.212-.066-.318-.37-.33-.622-.266-.026-.477.067-.543.318-.146.49.648.37-.067.82-.37.239-.9.371-1.27.543.185-.145.569-.569.635-.794.093-.317-.635-.397-.066-1.085-.026-.08-.146-.185-.238-.225-.86-.225-.053.847-1.033.57-.079-.014-.794-.319-1.164-.49 1.959.026.476-.689 1.667-.927.014-.212-.026-.476-.317-.556-.146-.026-.265.225-.503.265-.384.066-.649-1.059-.847-1.482.225.172.476.49.78.569.332.092.292-.397.702-.291.08.013.238.145.331.211.106-.092.251-.251.291-.344.027-.145-.145-.463-.265-.49-.211-.026-.516.173-.357-.463.027-.092.37-.807.556-1.204-.013.066-.093 1.032.225 1.112.08.013.251-.053.37-.013.345.092.265.582.345.622.277.066.529-.133.569-.345.106-.397-.265-.37-.212-.569.08-.317 1.482-.74 1.535-.74-1.416 1.098.106.793-.556 1.878.093.106.238.252.331.292.45.106.344-.49.397-.556.08-.146.41-.027.543 0 .092.013.794.304 1.19.49-.343 0-1.031-.067-1.098.158-.026.133.014.318-.026.477-.053.185-.41.238-.609.33.066.186.013.371.304.45.292.08.16-.25.53-.25.463-.014.582.978.86 1.534-.172-.172-.516-.595-.807-.675ZM5.797 3.52c-.794-.212-1.655.251-1.853 1.059-.185.688.212 1.601 1.085 1.84.728.185 1.601-.16 1.84-1.06.172-.727-.252-1.614-1.072-1.839Zm-.755 2.753c-.714-.186-1.138-.94-.966-1.655.185-.701.953-1.124 1.668-.94.714.186 1.164.954.966 1.655-.199.794-.98 1.125-1.668.94Zm7.464 5.889v.807c0 .027.066.609.066.635 0 .027-.052.37-.079.503-.146.027-.225.027-.45.08-.092-.331-.08-.331-.08-.41 0-.027.054-.265.054-.305 0-.026-.066-.251-.133-.397h-.145c-.08.093.013.132 0 .424-.16.092-.318.211-.477.317-.013 0-.026-.013-.053-.013V13.1c-.053-.079-.172-.026-.225-.053l-.132.953c-.251.027-.238 0-.344 0-.066-.251-.146-.648-.251-.979h-.08c-.053.133-.106.37-.106.384 0 .053.053.264.053.317 0 .027-.053.252-.053.397-.013 0-.013.014-.053.014-.463 0-.53-.225-.49-.57l.08-1.217c.013-.145.159-.08-.132-.476-.027-.053-.225-.053-.318-.066a12.664 12.664 0 0 0-.688-.146c-.662-.132-.701-.728-.701-1.125 0-.807.33-1.747 1.217-2.461.053.211.093.542.172.727.013.053.185.053.384.093.212.053.41.146.622.225-.133-.132-.556-.344-.728-.556-.146-.172-.172-.635-.172-.688 0-.159.715-.397.9-.423.264-.027.397-.067.847-.067.622 0 1.363.08 2.038.649-.225.251-.582.476-.86.622.304.026 1.058-.397 1.098-.397.106 0 .543.622.622.767.212.37.344.794.424 1.244 0 .384.013.397.013.424.026 1.535-1.84.715-1.84 1.469ZM9.304 9.66c-.57 0-.98.582-.98 1.032 0 .543.583.503.94.53h.556c.211.012.688.026.688-.345-.013-.556-.622-1.217-1.204-1.217Zm2.143 1.866c-.052-.146-.105-.397-.224-.57l-.106 1.192c0 .053.053.145-.053.145-.053 0-.066-.013-.066-.013-.027-.318-.08-.873-.08-.94v-.357c0-.013-.026-.026-.053-.026-.225.224-.344.78-.344 1.138 0 .145 0 .423.08.542.251-.066.092-.092.423-.092.265 0 .424.106.463.106.133 0 .093-.503.093-.543.013-.49.053-.12-.133-.582Zm1.43-1.866c-.556 0-1.165.635-1.165 1.204 0 .212.133.344.344.344h1.165c.265 0 .648-.08.648-.503.014-.476-.41-1.045-.992-1.045Z"/></g><defs><clipPath id="a"><path fill="#fff" d="M0 0h16v16H0z"/></clipPath></defs></svg>