<svg xmlns="http://www.w3.org/2000/svg" width="25" height="25" fill="none" data-manacost="(W/P)" data-testid="manaCostItem" viewBox="0 0 16 16"><g clip-path="url(#a)"><path fill="#EAE3B1" d="M0 7.991a7.82 7.82 0 0 1 .627-3.108A8.018 8.018 0 0 1 4.883.627 7.851 7.851 0 0 1 7.991 0c1.113 0 2.155.212 3.126.627a8.017 8.017 0 0 1 4.256 4.256A7.82 7.82 0 0 1 16 7.991a7.894 7.894 0 0 1-.627 3.117 8.056 8.056 0 0 1-1.713 2.552 8.017 8.017 0 0 1-2.543 1.713A7.874 7.874 0 0 1 7.991 16a7.82 7.82 0 0 1-3.108-.627A8.018 8.018 0 0 1 2.34 13.66a7.959 7.959 0 0 1-1.713-2.552A7.863 7.863 0 0 1 0 7.991Z"/><path fill="#000" d="M9.316 12.556c-.062-.009-.133-.018-.203-.035a1.708 1.708 0 0 0-.203-.018c-.089 0-.142.009-.16.035-.008.009-.017.044-.017.115v.23c0 .088 0 .185-.009.282a4.875 4.875 0 0 1-.026.239c-.036.14-.071.3-.124.476a1.855 1.855 0 0 0-.08.274.69.69 0 0 0-.061.22 1.458 1.458 0 0 0 .009.521c.017.09.026.142.026.177a.425.425 0 0 1-.07.204c-.036.052-.08.105-.124.15-.044.044-.08.097-.115.15a.437.437 0 0 0-.07.176.889.889 0 0 0-.08-.327 3.737 3.737 0 0 1-.124-.273c-.044-.097-.08-.203-.115-.31a1.545 1.545 0 0 1-.044-.44c0-.054 0-.115.01-.177.008-.062.008-.133.026-.203l-.133-.16v-.397c0-.035-.009-.07-.017-.123a1.5 1.5 0 0 0-.08-.256l-.026-.098a4.575 4.575 0 0 0-.053-.29c-.018-.08-.036-.133-.053-.151-.018-.018-.098-.027-.23-.027a.924.924 0 0 1-.327-.026l-.538-.177-1.033-.476a.559.559 0 0 0-.106-.265 1.92 1.92 0 0 0-.212-.256 2.775 2.775 0 0 0-.265-.212c-.088-.062-.168-.115-.23-.16l-.203-.202a1.481 1.481 0 0 1-.176-.221.605.605 0 0 1-.089-.186l-.08-.238c-.026-.08-.043-.15-.061-.212-.018-.062-.027-.106-.035-.123a.404.404 0 0 1-.045-.133c-.017-.08-.044-.177-.061-.291-.018-.115-.044-.248-.053-.398a1.97 1.97 0 0 1-.044-.441v-.16c0-.052.008-.105.017-.158 0-.035 0-.062.009-.097.009-.036.009-.062.009-.097a.302.302 0 0 0-.035-.16c-.027-.061-.053-.123-.089-.185a.352.352 0 0 1-.062-.212c.018-.114.053-.23.106-.344.053-.106.089-.203.124-.291.009-.053.018-.097.018-.142 0-.044.008-.088.017-.141 0-.044.01-.097.018-.159.026-.106.053-.176.097-.203a.808.808 0 0 1 .115-.07c.044-.018.08-.062.115-.115.026-.062.053-.177.08-.345l.238-.432c.114-.018.194-.053.23-.089a.155.155 0 0 0 .052-.115c0-.017 0-.044-.009-.07-.009-.027-.009-.053-.009-.088 0-.053.018-.098.045-.124.123-.027.247-.053.362-.097.123-.044.23-.097.326-.16.15-.114.274-.238.362-.361.098-.124.23-.23.398-.318.026-.018.07-.018.123-.027.053-.008.124-.008.195-.017.07-.01.132-.01.203-.027a1.408 1.408 0 0 0 .503-.185.318.318 0 0 1 .194-.062c.044-.009.07-.07.097-.194a.529.529 0 0 1 .133-.283c.026-.026.035-.062.044-.106a.507.507 0 0 0 .009-.106c0-.062-.009-.106-.027-.114-.017-.018-.026-.053-.026-.106 0-.098.044-.204.141-.318.044-.053.062-.124.062-.221a1.26 1.26 0 0 0-.027-.256 1.26 1.26 0 0 1-.026-.256c.018-.168.053-.3.088-.398.036-.097.07-.176.115-.238.035-.062.07-.124.097-.177A.5.5 0 0 0 8.08.46c0-.018 0-.044-.01-.071.01-.026 0-.053 0-.07.195.194.319.44.39.75.07.318.105.6.105.856v.195a.972.972 0 0 1-.018.159c-.017.061-.035.123-.035.176v.16c0 .176.027.335.088.458.062.124.106.274.124.46.009.044.062.07.141.097.089.017.168.035.256.035.018 0 .036 0 .053-.009.018-.009.027-.009.036-.009a.307.307 0 0 1 .115-.017c.07 0 .158.008.264.035.098.018.195.044.292.08.097.035.176.07.238.114s.097.089.097.124c0 .009-.008.026-.035.044-.009.018.035.053.133.097.097.044.211.097.344.15.123.062.247.115.353.168.106.053.159.097.159.124l.035.044a.312.312 0 0 1 .062.123.85.85 0 0 0 .115.212c0 .01.026.036.08.062.052.027.114.07.176.115.062.044.124.097.185.141.062.044.106.088.133.115a.95.95 0 0 1 .159.283c.044.114.088.23.123.335.045.106.08.203.115.283.036.08.062.114.097.114.045 0 .071.062.098.186.017.124.035.274.044.45l.026.565c.009.195.009.362.009.504.018.008.035.061.035.15 0 .088.018.132.062.132 0 .07-.053.194-.15.362-.097.168-.15.318-.15.45 0 .098.035.168.115.204l-.415.476-.098.477a.924.924 0 0 1-.238.16.359.359 0 0 0-.194.202.47.47 0 0 1-.027.115c-.017.053-.035.115-.053.177-.017.061-.044.123-.061.185a.318.318 0 0 1-.045.106 1.132 1.132 0 0 1-.476.31l-.256.096c-.098.036-.221.106-.363.212l-.256.3a.473.473 0 0 1-.211.089c-.071.009-.16.009-.283.009l-.247.247ZM7.01 4.962a1.34 1.34 0 0 0-.441.23c-.089.079-.177.185-.274.326l-.194.062a3.61 3.61 0 0 0-.133.265c-.026.07-.123.106-.282.115-.062.123-.124.238-.177.335a3.33 3.33 0 0 1-.141.221c-.044.062-.07.097-.089.097-.008 0-.044.044-.114.141a.825.825 0 0 0-.124.274c-.018.018-.018.044-.018.08 0 .053.018.097.053.114.036.027.053.071.053.124a1.03 1.03 0 0 1-.053.133.386.386 0 0 1-.053.088.482.482 0 0 0-.061.08.565.565 0 0 0-.053.14 1.67 1.67 0 0 0-.027.274c0 .053.009.089.018.115a.398.398 0 0 0 .088.212.554.554 0 0 1 .106.327c0 .035 0 .062-.009.088-.009.027-.009.053-.009.07-.009.036-.017.054-.017.063a.735.735 0 0 0 .106.22.876.876 0 0 1 .088.203c.018.089.044.168.062.256a.599.599 0 0 0 .115.239c.035.035.07.088.114.168.044.08.106.159.186.247a1.5 1.5 0 0 0 .273.247c.106.08.239.133.389.168.168.035.283.088.336.168.053.08.132.132.238.15.053.017.115.035.177.044.061.009.123.018.176.035.062.009.124.018.194.036v-.398c0-.053 0-.106-.008-.168-.01-.062-.01-.114-.01-.167a1.087 1.087 0 0 1-.017-.177v-.124a1 1 0 0 0-.035-.3 1 1 0 0 1-.036-.3v-.124c.01.018.018 0 .036-.053.009-.061.017-.132.035-.212l.027-.247c-.01-.097 0-.15 0-.185V8.6a.433.433 0 0 0-.045-.203.397.397 0 0 1-.053-.212c0-.018.01-.097.027-.22a2.673 2.673 0 0 0 .009-.689.456.456 0 0 0-.062-.195l.088-1.077c0-.018 0-.035-.009-.044-.008-.01-.008-.027-.008-.044-.018-.098-.045-.195-.062-.3a1.741 1.741 0 0 1-.036-.31c0-.114.018-.23.045-.353-.027-.009-.08-.009-.15-.009-.036 0-.062 0-.089.01-.026.008-.053.008-.07.008h-.08Zm4.132 3.876c.045-.14.062-.256.062-.353a.518.518 0 0 0-.035-.203c-.018-.062-.044-.132-.062-.212a.612.612 0 0 1-.026-.123.27.27 0 0 1 .017-.098.164.164 0 0 0 .018-.061c.009 0 .018-.01.035-.036a.5.5 0 0 0 .045-.159.674.674 0 0 0-.045-.238 1.006 1.006 0 0 0-.097-.194c-.017 0-.017-.01.01-.018.017-.009.034-.018.034-.035 0-.044-.026-.106-.08-.195a3.77 3.77 0 0 0-.184-.273l-.274-.345c0-.026.009-.061.009-.114 0-.124-.071-.248-.204-.363a2.635 2.635 0 0 0-.441-.309c-.168-.088-.309-.167-.442-.238-.132-.07-.203-.115-.203-.15 0-.053-.017-.088-.044-.106a.201.201 0 0 0-.097-.027l-.415-.026c0 .035.018.08.053.15.035.07.053.133.053.186 0 .008 0 .017-.009.026v.018a.28.28 0 0 0-.044.141c0 .018 0 .044.009.07a.274.274 0 0 1 .009.089c0 .044-.009.07-.018.097-.026-.009-.044.018-.062.097-.017.08-.017.15-.017.239a.57.57 0 0 0 .026.176.193.193 0 0 0 .106.115c0 .088.009.168.035.247.018.08.036.16.036.247a.556.556 0 0 1-.044.195c-.045.026-.053.061-.053.097 0 .053.008.106.035.159a.516.516 0 0 1 .035.159c0 .053-.009.097-.035.123-.044.089-.08.212-.115.38-.026.159-.044.31-.044.45 0 .097.009.16.018.195l-.062.432c.017.15.044.283.08.415.017.115.043.221.061.327.018.106.035.177.035.23 0 .061 0 .14-.008.238-.01.097-.01.194-.018.291l-.027.3a1.5 1.5 0 0 1-.035.248.517.517 0 0 1 .186-.027c.079.01.15-.008.203-.035l.3-.203.22-.239c.045-.044.133-.07.274-.097a.685.685 0 0 0 .38-.194.961.961 0 0 0 .23-.327.541.541 0 0 1 .15-.23c.053-.017.08-.07.08-.158s.026-.159.079-.22c.053-.063.106-.116.159-.169.053-.053.106-.176.159-.362Z"/></g><defs><clipPath id="a"><path fill="#fff" d="M0 0h16v16H0z"/></clipPath></defs></svg>