<svg xmlns="http://www.w3.org/2000/svg" width="25" height="25" fill="none" data-manacost="(W/U)" data-testid="manaCostItem" viewBox="0 0 16 16"><g clip-path="url(#a)"><path fill="#FFFBD1" d="M7.993 0C12.427 0 16 3.586 16 7.993A8 8 0 0 1 7.993 16C3.586 15.987 0 12.4 0 7.993S3.586 0 7.993 0Z"/><path fill="#9FDCF9" d="M7.993 15.987c-2.196 0-4.208-.9-5.664-2.369L13.671 2.316A8.038 8.038 0 0 1 16 7.981c-.013 4.42-3.586 8.006-8.007 8.006Z"/><path fill="#070400" d="M7.94 5.796c-.397-.092-.158.45-.688.305-.092-.014-.251-.093-.397-.172-.106.079-.238.185-.264.278-.04.211.251.476.304.49.33.079.49-.146.33.476-.026.079-.304.767-.502 1.164 0-.092.026-1.006-.251-1.085-.106-.013-.265.066-.371.04-.212-.066-.318-.37-.33-.622-.279-.027-.477.066-.543.317-.146.49.648.37-.067.82-.37.24-.9.371-1.27.543.185-.145.569-.569.635-.794.093-.317-.635-.397-.066-1.085a.473.473 0 0 0-.238-.212c-.86-.225-.04.834-1.033.57-.079-.014-.794-.318-1.15-.49 1.944.026.476-.688 1.667-.927.013-.211-.027-.476-.318-.555-.146-.027-.265.225-.503.264-.384.067-.648-1.058-.847-1.482.225.185.477.503.768.582.33.093.29-.397.701-.29.08.026.238.145.33.211.12-.093.266-.251.292-.344.027-.146-.146-.463-.265-.49-.225-.066-.529.133-.37-.503.026-.092.37-.807.556-1.204-.014.066-.093 1.032.225 1.112.079.013.251-.04.357-.013.344.092.265.582.344.622.265.066.53-.133.57-.345.131-.41-.252-.37-.2-.582.08-.317 1.483-.741 1.549-.741-1.416 1.098.106.794-.556 1.88.093.105.238.25.331.29.45.106.344-.49.397-.555.08-.146.41-.027.543 0 .092.013.794.304 1.19.49-.343 0-1.032-.067-1.098.158-.026.12.013.304-.026.463-.053.199-.424.238-.609.331.066.199.013.37.304.45.292.08.16-.251.53-.251.45-.014.582.979.847 1.535-.172-.146-.516-.57-.808-.649ZM5.783 3.52c-.794-.212-1.654.251-1.852 1.059-.199.688.198 1.614 1.072 1.853.727.185 1.6-.16 1.84-1.06.198-.74-.24-1.627-1.06-1.852ZM5.03 6.273c-.715-.186-1.138-.94-.966-1.655.185-.701.953-1.124 1.667-.94.715.2 1.165.954.966 1.655-.198.794-.979 1.125-1.667.94Zm6.1 1.508c0-.49-.026-.211.16-1.098-1.575 1.31-3.057 3.428-3.057 4.99 0 1.27.714 2.606 2.382 2.606 1.297 0 2.355-1.019 2.355-2.382-.013-1.575-1.84-2.448-1.84-4.116Zm.874 4.526a.407.407 0 0 1-.423-.41c0-.092.41-1.059.278-1.43.344.186.608.927.608 1.258-.013.212-.092.582-.463.582Z"/></g><defs><clipPath id="a"><path fill="#fff" d="M0 0h16v16H0z"/></clipPath></defs></svg>